G04*
G04 #@! TF.GenerationSoftware,Altium Limited,Altium Designer,24.1.2 (44)*
G04*
G04 Layer_Color=16711935*
%FSLAX23Y23*%
%MOIN*%
G70*
G04*
G04 #@! TF.SameCoordinates,1E542CD3-69C3-4CFC-80F9-717F5B153BB9*
G04*
G04*
G04 #@! TF.FilePolarity,Positive*
G04*
G01*
G75*
%ADD12C,0.004*%
G36*
X141Y1045D02*
X139D01*
Y1054D01*
X129D01*
Y1045D01*
X126D01*
Y1064D01*
X129D01*
Y1056D01*
X139D01*
Y1064D01*
X141D01*
Y1045D01*
D02*
G37*
G36*
X152Y1064D02*
X152Y1064D01*
X152Y1064D01*
X152Y1064D01*
X153Y1064D01*
X153Y1064D01*
X154Y1063D01*
X154Y1063D01*
X155Y1063D01*
X155Y1063D01*
X155Y1062D01*
X155Y1062D01*
X156Y1062D01*
X156Y1062D01*
X156Y1062D01*
X156Y1062D01*
X156Y1062D01*
X156Y1062D01*
X156Y1061D01*
X157Y1061D01*
X157Y1060D01*
X157Y1060D01*
X157Y1060D01*
X157Y1059D01*
X157Y1059D01*
Y1059D01*
Y1059D01*
X157Y1058D01*
X157Y1058D01*
X157Y1058D01*
X157Y1057D01*
X157Y1057D01*
X157Y1056D01*
X157Y1056D01*
X156Y1056D01*
X156Y1056D01*
X156Y1056D01*
X156Y1055D01*
X156Y1055D01*
X155Y1055D01*
X155Y1054D01*
X155Y1054D01*
X155Y1054D01*
X155Y1054D01*
X155Y1054D01*
X154Y1053D01*
X154Y1053D01*
X154Y1053D01*
X154Y1053D01*
X153Y1052D01*
X153Y1052D01*
X153Y1052D01*
X152Y1051D01*
X152Y1051D01*
X151Y1051D01*
X151Y1051D01*
X151Y1051D01*
X151Y1051D01*
X151Y1050D01*
X151Y1050D01*
X151Y1050D01*
X150Y1050D01*
X150Y1049D01*
X149Y1049D01*
X149Y1049D01*
X149Y1048D01*
X149Y1048D01*
X149Y1048D01*
X149Y1048D01*
X148Y1048D01*
X148Y1048D01*
X148Y1048D01*
X148Y1048D01*
X148Y1047D01*
X157D01*
Y1045D01*
X144D01*
Y1045D01*
Y1045D01*
Y1045D01*
X144Y1045D01*
X144Y1046D01*
X144Y1046D01*
X145Y1046D01*
X145Y1046D01*
Y1046D01*
X145Y1046D01*
X145Y1047D01*
X145Y1047D01*
X145Y1047D01*
X145Y1048D01*
X146Y1048D01*
X146Y1048D01*
X146Y1049D01*
Y1049D01*
X146Y1049D01*
X146Y1049D01*
X147Y1049D01*
X147Y1050D01*
X147Y1050D01*
X148Y1051D01*
X149Y1051D01*
X149Y1052D01*
X149Y1052D01*
X149Y1052D01*
X150Y1052D01*
X150Y1052D01*
X150Y1052D01*
X150Y1053D01*
X151Y1053D01*
X151Y1053D01*
X152Y1054D01*
X152Y1055D01*
X153Y1055D01*
X153Y1055D01*
X153Y1056D01*
X154Y1056D01*
Y1056D01*
X154Y1056D01*
X154Y1056D01*
X154Y1056D01*
X154Y1056D01*
X154Y1057D01*
X154Y1057D01*
X154Y1058D01*
X155Y1058D01*
X155Y1059D01*
Y1059D01*
Y1059D01*
X155Y1059D01*
X155Y1059D01*
X155Y1060D01*
X154Y1060D01*
X154Y1060D01*
X154Y1061D01*
X154Y1061D01*
X154Y1061D01*
X153Y1061D01*
X153Y1061D01*
X153Y1062D01*
X153Y1062D01*
X152Y1062D01*
X152Y1062D01*
X151Y1062D01*
X151D01*
X151Y1062D01*
X150Y1062D01*
X150Y1062D01*
X150Y1062D01*
X149Y1062D01*
X149Y1061D01*
X148Y1061D01*
X148Y1061D01*
X148Y1061D01*
X148Y1061D01*
X148Y1060D01*
X148Y1060D01*
X147Y1059D01*
X147Y1059D01*
X147Y1058D01*
X145Y1058D01*
Y1059D01*
X145Y1059D01*
Y1059D01*
X145Y1059D01*
X145Y1059D01*
X145Y1059D01*
X145Y1060D01*
X145Y1060D01*
X145Y1061D01*
X146Y1061D01*
X146Y1062D01*
X146Y1062D01*
X146Y1062D01*
X147Y1063D01*
X147Y1063D01*
X147Y1063D01*
X147Y1063D01*
X147Y1063D01*
X147Y1063D01*
X147Y1063D01*
X148Y1063D01*
X148Y1063D01*
X148Y1063D01*
X148Y1064D01*
X149Y1064D01*
X149Y1064D01*
X150Y1064D01*
X150Y1064D01*
X151Y1064D01*
X151Y1064D01*
X151D01*
X152Y1064D01*
D02*
G37*
G36*
X841Y1041D02*
X839D01*
Y1050D01*
X829D01*
Y1041D01*
X826D01*
Y1060D01*
X829D01*
Y1052D01*
X839D01*
Y1060D01*
X841D01*
Y1041D01*
D02*
G37*
G36*
X851Y1060D02*
X851Y1060D01*
X852Y1060D01*
X852Y1060D01*
X853Y1060D01*
X853Y1059D01*
X853D01*
X853Y1059D01*
X854Y1059D01*
X854Y1059D01*
X854Y1059D01*
X854Y1059D01*
X855Y1058D01*
X855Y1058D01*
X855Y1058D01*
X855Y1057D01*
X856Y1057D01*
X856Y1057D01*
X856Y1057D01*
X856Y1056D01*
X856Y1056D01*
X856Y1056D01*
X856Y1055D01*
Y1055D01*
Y1055D01*
X856Y1055D01*
X856Y1054D01*
X856Y1054D01*
X856Y1054D01*
X856Y1053D01*
X855Y1053D01*
X855Y1053D01*
X855Y1053D01*
X855Y1052D01*
X855Y1052D01*
X855Y1052D01*
X854Y1052D01*
X854Y1051D01*
X853Y1051D01*
X854D01*
X854Y1051D01*
X854Y1051D01*
X854Y1051D01*
X854Y1051D01*
X854Y1051D01*
X855Y1051D01*
X855Y1050D01*
X856Y1050D01*
X856Y1050D01*
X856Y1049D01*
X856Y1049D01*
X856Y1049D01*
X857Y1049D01*
X857Y1048D01*
X857Y1048D01*
X857Y1047D01*
X857Y1046D01*
Y1046D01*
Y1046D01*
Y1046D01*
X857Y1046D01*
X857Y1046D01*
X857Y1046D01*
X857Y1045D01*
X857Y1045D01*
X857Y1044D01*
X856Y1044D01*
X856Y1044D01*
X856Y1043D01*
X856Y1043D01*
X856Y1043D01*
X855Y1042D01*
X855Y1042D01*
X855Y1042D01*
X855Y1042D01*
X855Y1042D01*
X855Y1042D01*
X855Y1042D01*
X854Y1041D01*
X854Y1041D01*
X854Y1041D01*
X853Y1041D01*
X853Y1041D01*
X853Y1041D01*
X852Y1041D01*
X852Y1041D01*
X851Y1040D01*
X851Y1040D01*
X850D01*
X850Y1040D01*
X850Y1041D01*
X850Y1041D01*
X849Y1041D01*
X849Y1041D01*
X848Y1041D01*
X848Y1041D01*
X847Y1041D01*
X847Y1041D01*
X847Y1042D01*
X846Y1042D01*
X846Y1042D01*
X846Y1042D01*
X846Y1042D01*
X846Y1042D01*
X846Y1042D01*
X846Y1043D01*
X846Y1043D01*
X846Y1043D01*
X845Y1043D01*
X845Y1044D01*
X845Y1044D01*
X845Y1045D01*
X845Y1045D01*
X845Y1046D01*
X847Y1046D01*
Y1046D01*
X847Y1046D01*
X847Y1046D01*
X847Y1046D01*
X847Y1046D01*
X847Y1045D01*
X847Y1045D01*
X847Y1045D01*
X848Y1044D01*
X848Y1044D01*
X848Y1043D01*
X848Y1043D01*
X848Y1043D01*
X849Y1043D01*
X849Y1043D01*
X849Y1043D01*
X850Y1043D01*
X850Y1042D01*
X851Y1042D01*
X851D01*
X851Y1042D01*
X851Y1042D01*
X852Y1043D01*
X852Y1043D01*
X853Y1043D01*
X853Y1043D01*
X853Y1044D01*
X853Y1044D01*
X854Y1044D01*
X854Y1044D01*
X854Y1044D01*
X854Y1045D01*
X854Y1045D01*
X855Y1046D01*
X855Y1046D01*
Y1046D01*
Y1046D01*
Y1047D01*
X855Y1047D01*
X855Y1047D01*
X854Y1047D01*
X854Y1048D01*
X854Y1048D01*
X854Y1049D01*
X854Y1049D01*
X853Y1049D01*
X853Y1049D01*
X853Y1049D01*
X853Y1050D01*
X852Y1050D01*
X852Y1050D01*
X851Y1050D01*
X851Y1050D01*
X851D01*
X850Y1050D01*
X850Y1050D01*
X850Y1050D01*
X850Y1050D01*
X849Y1050D01*
X849Y1052D01*
X850D01*
X850Y1052D01*
X850D01*
X850Y1052D01*
X851Y1052D01*
X851Y1052D01*
X852Y1052D01*
X852Y1052D01*
X853Y1053D01*
X853D01*
X853Y1053D01*
X853Y1053D01*
X853Y1053D01*
X853Y1053D01*
X853Y1054D01*
X854Y1054D01*
X854Y1055D01*
X854Y1055D01*
Y1055D01*
Y1055D01*
Y1055D01*
Y1055D01*
X854Y1056D01*
X854Y1056D01*
X854Y1056D01*
X853Y1057D01*
X853Y1057D01*
X853Y1057D01*
X853Y1057D01*
X853Y1057D01*
X852Y1058D01*
X852Y1058D01*
X852Y1058D01*
X852Y1058D01*
X851Y1058D01*
X851Y1058D01*
X850D01*
X850Y1058D01*
X850Y1058D01*
X849Y1058D01*
X849Y1058D01*
X849Y1058D01*
X848Y1057D01*
X848Y1057D01*
X848Y1057D01*
X848Y1057D01*
X848Y1057D01*
X848Y1056D01*
X847Y1056D01*
X847Y1055D01*
X847Y1055D01*
X845Y1055D01*
Y1055D01*
X845Y1055D01*
X845Y1055D01*
X845Y1055D01*
X845Y1056D01*
X845Y1056D01*
X845Y1056D01*
X845Y1057D01*
X846Y1058D01*
X846Y1058D01*
X847Y1059D01*
X847Y1059D01*
X847Y1059D01*
X847Y1059D01*
X847Y1059D01*
X847Y1059D01*
X847Y1059D01*
X848Y1059D01*
X848Y1059D01*
X848Y1060D01*
X849Y1060D01*
X850Y1060D01*
X850Y1060D01*
X851D01*
X851Y1060D01*
D02*
G37*
D12*
X92Y2052D02*
X192D01*
X92Y57D02*
Y2052D01*
Y57D02*
X192D01*
Y2052D01*
X792Y52D02*
Y2047D01*
X892D01*
Y52D02*
Y2047D01*
X792Y52D02*
X892D01*
M02*
