G04*
G04 #@! TF.GenerationSoftware,Altium Limited,Altium Designer,24.1.2 (44)*
G04*
G04 Layer_Color=128*
%FSLAX23Y23*%
%MOIN*%
G70*
G04*
G04 #@! TF.SameCoordinates,1E542CD3-69C3-4CFC-80F9-717F5B153BB9*
G04*
G04*
G04 #@! TF.FilePolarity,Positive*
G04*
G01*
G75*
%ADD89C,0.002*%
D89*
X439Y1789D02*
X467D01*
X453Y1776D02*
Y1803D01*
X518Y1789D02*
X545D01*
X531Y1776D02*
Y1803D01*
X691Y1761D02*
X726D01*
X709Y1743D02*
Y1779D01*
X691Y1861D02*
X726D01*
X709Y1843D02*
Y1879D01*
X124Y1602D02*
X159D01*
X142Y1585D02*
Y1620D01*
X124Y1802D02*
X159D01*
X142Y1785D02*
Y1820D01*
X124Y1902D02*
X159D01*
X142Y1885D02*
Y1920D01*
X124Y2002D02*
X159D01*
X142Y1985D02*
Y2020D01*
X124Y1702D02*
X159D01*
X142Y1685D02*
Y1720D01*
X124Y1202D02*
X159D01*
X142Y1185D02*
Y1220D01*
X124Y1402D02*
X159D01*
X142Y1385D02*
Y1420D01*
X124Y1502D02*
X159D01*
X142Y1485D02*
Y1520D01*
X124Y1302D02*
X159D01*
X142Y1285D02*
Y1320D01*
X124Y902D02*
X159D01*
X142Y885D02*
Y920D01*
X124Y1102D02*
X159D01*
X142Y1085D02*
Y1120D01*
X124Y1002D02*
X159D01*
X142Y985D02*
Y1020D01*
X124Y502D02*
X159D01*
X142Y485D02*
Y520D01*
X124Y702D02*
X159D01*
X142Y685D02*
Y720D01*
X124Y802D02*
X159D01*
X142Y785D02*
Y820D01*
X124Y602D02*
X159D01*
X142Y585D02*
Y620D01*
X124Y102D02*
X159D01*
X142Y85D02*
Y120D01*
X124Y302D02*
X159D01*
X142Y285D02*
Y320D01*
X124Y402D02*
X159D01*
X142Y385D02*
Y420D01*
X124Y202D02*
X159D01*
X142Y185D02*
Y220D01*
X824Y1902D02*
X859D01*
X842Y1885D02*
Y1920D01*
X824Y1702D02*
X859D01*
X842Y1685D02*
Y1720D01*
X824Y1802D02*
X859D01*
X842Y1785D02*
Y1820D01*
X824Y2002D02*
X859D01*
X842Y1985D02*
Y2020D01*
X824Y1502D02*
X859D01*
X842Y1485D02*
Y1520D01*
X824Y1302D02*
X859D01*
X842Y1285D02*
Y1320D01*
X824Y1402D02*
X859D01*
X842Y1385D02*
Y1420D01*
X824Y1602D02*
X859D01*
X842Y1585D02*
Y1620D01*
X824Y1102D02*
X859D01*
X842Y1085D02*
Y1120D01*
X824Y1002D02*
X859D01*
X842Y985D02*
Y1020D01*
X824Y1202D02*
X859D01*
X842Y1185D02*
Y1220D01*
X824Y802D02*
X859D01*
X842Y785D02*
Y820D01*
X824Y602D02*
X859D01*
X842Y585D02*
Y620D01*
X824Y702D02*
X859D01*
X842Y685D02*
Y720D01*
X824Y902D02*
X859D01*
X842Y885D02*
Y920D01*
X824Y402D02*
X859D01*
X842Y385D02*
Y420D01*
X824Y102D02*
X859D01*
X842Y85D02*
Y120D01*
X824Y202D02*
X859D01*
X842Y185D02*
Y220D01*
X824Y302D02*
X859D01*
X842Y285D02*
Y320D01*
X824Y502D02*
X859D01*
X842Y485D02*
Y520D01*
X675Y1973D02*
X757D01*
X716Y1932D02*
Y2015D01*
X226Y1973D02*
X309D01*
X267Y1932D02*
Y2015D01*
X675Y131D02*
X757D01*
X716Y90D02*
Y173D01*
X226Y131D02*
X309D01*
X267Y90D02*
Y173D01*
X801Y51D02*
X813D01*
X807Y45D02*
Y57D01*
X726Y201D02*
X738D01*
X732Y195D02*
Y207D01*
X576Y2001D02*
X588D01*
X582Y1995D02*
Y2007D01*
X501Y951D02*
X513D01*
X507Y945D02*
Y957D01*
X576Y801D02*
X588D01*
X582Y795D02*
Y807D01*
X501Y651D02*
X513D01*
X507Y645D02*
Y657D01*
X576Y501D02*
X588D01*
X582Y495D02*
Y507D01*
X351Y1851D02*
X363D01*
X357Y1845D02*
Y1857D01*
X351Y951D02*
X363D01*
X357Y945D02*
Y957D01*
X426Y801D02*
X438D01*
X432Y795D02*
Y807D01*
X351Y651D02*
X363D01*
X357Y645D02*
Y657D01*
X426Y501D02*
X438D01*
X432Y495D02*
Y507D01*
X201Y1251D02*
X213D01*
X207Y1245D02*
Y1257D01*
X276Y201D02*
X288D01*
X282Y195D02*
Y207D01*
X201Y51D02*
X213D01*
X207Y45D02*
Y57D01*
X51Y1851D02*
X63D01*
X57Y1845D02*
Y1857D01*
X51Y351D02*
X63D01*
X57Y345D02*
Y357D01*
X51Y51D02*
X63D01*
X57Y45D02*
Y57D01*
X344Y1598D02*
X356D01*
X350Y1593D02*
Y1604D01*
X231Y1646D02*
X243D01*
X237Y1640D02*
Y1652D01*
X278Y1559D02*
X289D01*
X283Y1553D02*
Y1565D01*
X384Y1598D02*
X396D01*
X390Y1593D02*
Y1604D01*
X301Y1827D02*
X313D01*
X307Y1821D02*
Y1833D01*
X254Y1827D02*
X266D01*
X260Y1821D02*
Y1833D01*
X207Y1717D02*
X219D01*
X213Y1711D02*
Y1722D01*
X207Y1461D02*
X219D01*
X213Y1455D02*
Y1467D01*
X207Y1437D02*
X219D01*
X213Y1431D02*
Y1443D01*
X502Y1421D02*
X514D01*
X508Y1415D02*
Y1427D01*
X526Y1453D02*
X537D01*
X531Y1447D02*
Y1459D01*
X494Y311D02*
X506D01*
X500Y305D02*
Y317D01*
X423Y331D02*
X435D01*
X429Y325D02*
Y337D01*
X69Y776D02*
X81D01*
X75Y770D02*
Y781D01*
X41Y740D02*
X53D01*
X47Y734D02*
Y746D01*
X41Y559D02*
X53D01*
X47Y553D02*
Y565D01*
X41Y862D02*
X53D01*
X47Y856D02*
Y868D01*
X494Y1941D02*
X506D01*
X500Y1935D02*
Y1947D01*
X207Y1795D02*
X219D01*
X213Y1789D02*
Y1801D01*
X309Y1795D02*
X321D01*
X315Y1789D02*
Y1801D01*
X313Y1760D02*
X325D01*
X319Y1754D02*
Y1766D01*
X348Y1902D02*
X360D01*
X354Y1896D02*
Y1907D01*
X576Y693D02*
X588D01*
X582Y687D02*
Y699D01*
X576Y886D02*
X588D01*
X582Y880D02*
Y892D01*
X576Y1051D02*
X588D01*
X582Y1045D02*
Y1057D01*
X620Y1622D02*
X632D01*
X626Y1616D02*
Y1628D01*
X919Y858D02*
X931D01*
X925Y852D02*
Y864D01*
X670Y1548D02*
X681D01*
X676Y1542D02*
Y1554D01*
X873Y2053D02*
X885D01*
X879Y2047D02*
Y2059D01*
X53Y2043D02*
X65D01*
X59Y2037D02*
Y2049D01*
X51Y1996D02*
X63D01*
X57Y1990D02*
Y2002D01*
X51Y1917D02*
X63D01*
X57Y1911D02*
Y1923D01*
X734Y59D02*
X746D01*
X740Y53D02*
Y65D01*
X919Y106D02*
X931D01*
X925Y100D02*
Y112D01*
X51Y155D02*
X63D01*
X57Y149D02*
Y161D01*
X51Y256D02*
X63D01*
X57Y250D02*
Y262D01*
X51Y425D02*
X63D01*
X57Y419D02*
Y431D01*
X49Y512D02*
X61D01*
X55Y506D02*
Y518D01*
X451Y1276D02*
X463D01*
X457Y1270D02*
Y1281D01*
X553Y1571D02*
X565D01*
X559Y1565D02*
Y1577D01*
X648Y2028D02*
X659D01*
X654Y2022D02*
Y2033D01*
X431Y2008D02*
X443D01*
X437Y2002D02*
Y2014D01*
X439Y1652D02*
X451D01*
X445Y1646D02*
Y1658D01*
X348Y1441D02*
X360D01*
X354Y1435D02*
Y1447D01*
X884Y1748D02*
X896D01*
X890Y1742D02*
Y1754D01*
X679Y1493D02*
X691D01*
X685Y1487D02*
Y1499D01*
X742Y1429D02*
X754D01*
X748Y1423D02*
Y1435D01*
X778Y1669D02*
X789D01*
X783Y1663D02*
Y1675D01*
X770Y1583D02*
X781D01*
X776Y1577D02*
Y1589D01*
X516Y1228D02*
X528D01*
X522Y1222D02*
Y1234D01*
X923Y948D02*
X935D01*
X929Y942D02*
Y954D01*
X85Y1185D02*
X96D01*
X91Y1179D02*
Y1191D01*
X57Y1122D02*
X69D01*
X63Y1116D02*
Y1128D01*
X65Y1031D02*
X77D01*
X71Y1025D02*
Y1037D01*
X486Y1075D02*
X498D01*
X492Y1069D02*
Y1081D01*
X577Y1213D02*
X589D01*
X583Y1207D02*
Y1219D01*
X498Y1350D02*
X510D01*
X504Y1344D02*
Y1356D01*
X85Y1335D02*
X96D01*
X91Y1329D02*
Y1341D01*
X691Y1043D02*
X703D01*
X697Y1037D02*
Y1049D01*
X644Y1244D02*
X656D01*
X650Y1238D02*
Y1250D01*
X254Y2157D02*
X266D01*
X260Y2152D02*
Y2163D01*
X301Y2118D02*
X313D01*
X307Y2112D02*
Y2124D01*
X305Y63D02*
X317D01*
X311Y57D02*
Y69D01*
X313Y205D02*
X325D01*
X319Y199D02*
Y211D01*
X663Y205D02*
X675D01*
X669Y199D02*
Y211D01*
X667Y63D02*
X679D01*
X673Y57D02*
Y69D01*
X844Y2138D02*
X856D01*
X850Y2132D02*
Y2144D01*
X679Y2138D02*
X691D01*
X685Y2132D02*
Y2144D01*
X136Y2142D02*
X148D01*
X142Y2136D02*
Y2148D01*
X919Y1260D02*
X931D01*
X925Y1254D02*
Y1266D01*
X935Y2094D02*
X947D01*
X941Y2089D02*
Y2100D01*
X754Y2138D02*
X766D01*
X760Y2132D02*
Y2144D01*
X207Y2138D02*
X219D01*
X213Y2132D02*
Y2144D01*
X45Y1610D02*
X57D01*
X51Y1604D02*
Y1616D01*
X57Y1161D02*
X69D01*
X63Y1156D02*
Y1167D01*
X451Y236D02*
X463D01*
X457Y230D02*
Y242D01*
X337Y264D02*
X348D01*
X343Y258D02*
Y270D01*
X404Y260D02*
X415D01*
X409Y254D02*
Y266D01*
X280Y342D02*
X292D01*
X286Y336D02*
Y348D01*
X292Y310D02*
X304D01*
X298Y304D02*
Y316D01*
X313Y284D02*
X325D01*
X319Y278D02*
Y290D01*
X443Y261D02*
X455D01*
X449Y255D02*
Y267D01*
X385Y330D02*
X397D01*
X391Y324D02*
Y335D01*
X353Y339D02*
X365D01*
X359Y333D02*
Y345D01*
X345Y372D02*
X357D01*
X351Y366D02*
Y378D01*
X73Y894D02*
X85D01*
X79Y888D02*
Y900D01*
X703Y256D02*
X715D01*
X709Y250D02*
Y262D01*
X679Y256D02*
X691D01*
X685Y250D02*
Y262D01*
X657Y256D02*
X669D01*
X663Y250D02*
Y262D01*
X687Y571D02*
X699D01*
X693Y565D02*
Y577D01*
X629Y306D02*
X641D01*
X635Y300D02*
Y312D01*
X644Y354D02*
X656D01*
X650Y348D02*
Y360D01*
X364Y236D02*
X376D01*
X370Y230D02*
Y242D01*
X313Y31D02*
X325D01*
X319Y26D02*
Y37D01*
X667Y31D02*
X679D01*
X673Y26D02*
Y37D01*
X246Y370D02*
X258D01*
X252Y364D02*
Y376D01*
X195Y370D02*
X207D01*
X201Y364D02*
Y376D01*
X281Y516D02*
X293D01*
X287Y510D02*
Y522D01*
X281Y575D02*
X293D01*
X287Y569D02*
Y581D01*
X396Y1260D02*
X407D01*
X402Y1254D02*
Y1266D01*
X278Y1260D02*
X289D01*
X283Y1254D02*
Y1266D01*
X337Y1260D02*
X348D01*
X343Y1254D02*
Y1266D01*
X124Y1154D02*
X136D01*
X130Y1148D02*
Y1159D01*
X766Y189D02*
X778D01*
X772Y183D02*
Y195D01*
X750Y323D02*
X762D01*
X756Y317D02*
Y329D01*
X746Y350D02*
X758D01*
X752Y344D02*
Y356D01*
X762Y283D02*
X774D01*
X768Y278D02*
Y289D01*
X384Y374D02*
X396D01*
X390Y368D02*
Y380D01*
X900Y220D02*
X911D01*
X906Y215D02*
Y226D01*
X947Y346D02*
X959D01*
X953Y341D02*
Y352D01*
X943Y433D02*
X955D01*
X949Y427D02*
Y439D01*
X943Y646D02*
X955D01*
X949Y640D02*
Y652D01*
X923Y752D02*
X935D01*
X929Y746D02*
Y758D01*
X691Y748D02*
X703D01*
X697Y742D02*
Y754D01*
X805Y1150D02*
X817D01*
X811Y1144D02*
Y1156D01*
X746Y1205D02*
X758D01*
X752Y1199D02*
Y1211D01*
X746Y1244D02*
X758D01*
X752Y1238D02*
Y1250D01*
X719Y1519D02*
X730D01*
X724Y1514D02*
Y1525D01*
X85Y1780D02*
X96D01*
X91Y1774D02*
Y1785D01*
X939Y311D02*
X951D01*
X945Y305D02*
Y317D01*
X888Y374D02*
X900D01*
X894Y368D02*
Y380D01*
X691Y512D02*
X703D01*
X697Y506D02*
Y518D01*
X691Y807D02*
X703D01*
X697Y801D02*
Y813D01*
X691Y984D02*
X703D01*
X697Y978D02*
Y990D01*
X809Y650D02*
X821D01*
X815Y644D02*
Y656D01*
X427Y374D02*
X439D01*
X433Y368D02*
Y380D01*
X868Y553D02*
X880D01*
X874Y547D02*
Y559D01*
X569Y374D02*
X581D01*
X575Y368D02*
Y380D01*
X478Y374D02*
X490D01*
X484Y368D02*
Y380D01*
X947Y488D02*
X959D01*
X953Y482D02*
Y494D01*
X687Y870D02*
X699D01*
X693Y864D02*
Y876D01*
X644Y1189D02*
X656D01*
X650Y1183D02*
Y1195D01*
X565Y1327D02*
X577D01*
X571Y1321D02*
Y1333D01*
M02*
