G04*
G04 #@! TF.GenerationSoftware,Altium Limited,Altium Designer,24.1.2 (44)*
G04*
G04 Layer_Color=2752767*
%FSLAX23Y23*%
%MOIN*%
G70*
G04*
G04 #@! TF.SameCoordinates,2B9B36D7-F7CC-424B-A3D7-6DE2A24948DF*
G04*
G04*
G04 #@! TF.FilePolarity,Positive*
G04*
G01*
G75*
%ADD89C,0.002*%
%ADD90C,0.003*%
D89*
X445Y1781D02*
X449Y1789D01*
X445Y1797D01*
X453Y1793D01*
X461Y1797D01*
X457Y1789D01*
X461Y1781D01*
X453Y1785D01*
X445Y1781D01*
X523D02*
X527Y1789D01*
X523Y1797D01*
X531Y1793D01*
X539Y1797D01*
X535Y1789D01*
X539Y1781D01*
X531Y1785D01*
X523Y1781D01*
X716Y1965D02*
X720Y1969D01*
X724D01*
X720Y1973D01*
X724Y1977D01*
X720D01*
X716Y1981D01*
X712Y1977D01*
X708D01*
X712Y1973D01*
X708Y1969D01*
X712D01*
X716Y1965D01*
X267D02*
X271Y1969D01*
X275D01*
X271Y1973D01*
X275Y1977D01*
X271D01*
X267Y1981D01*
X263Y1977D01*
X259D01*
X263Y1973D01*
X259Y1969D01*
X263D01*
X267Y1965D01*
X716Y123D02*
X720Y127D01*
X724D01*
X720Y131D01*
X724Y135D01*
X720D01*
X716Y139D01*
X712Y135D01*
X708D01*
X712Y131D01*
X708Y127D01*
X712D01*
X716Y123D01*
X267D02*
X271Y127D01*
X275D01*
X271Y131D01*
X275Y135D01*
X271D01*
X267Y139D01*
X263Y135D01*
X259D01*
X263Y131D01*
X259Y127D01*
X263D01*
X267Y123D01*
X807Y43D02*
X799Y59D01*
X815D01*
X807Y43D01*
X732Y193D02*
X724Y209D01*
X740D01*
X732Y193D01*
X582Y1993D02*
X574Y2009D01*
X590D01*
X582Y1993D01*
X507Y943D02*
X499Y959D01*
X515D01*
X507Y943D01*
X582Y793D02*
X574Y809D01*
X590D01*
X582Y793D01*
X507Y643D02*
X499Y659D01*
X515D01*
X507Y643D01*
X582Y493D02*
X574Y509D01*
X590D01*
X582Y493D01*
X357Y1843D02*
X349Y1859D01*
X365D01*
X357Y1843D01*
Y943D02*
X349Y959D01*
X365D01*
X357Y943D01*
X432Y793D02*
X424Y809D01*
X440D01*
X432Y793D01*
X357Y643D02*
X349Y659D01*
X365D01*
X357Y643D01*
X432Y493D02*
X424Y509D01*
X440D01*
X432Y493D01*
X207Y1243D02*
X199Y1259D01*
X215D01*
X207Y1243D01*
X282Y193D02*
X274Y209D01*
X290D01*
X282Y193D01*
X207Y43D02*
X199Y59D01*
X215D01*
X207Y43D01*
X57Y1843D02*
X49Y1859D01*
X65D01*
X57Y1843D01*
Y343D02*
X49Y359D01*
X65D01*
X57Y343D01*
Y43D02*
X49Y59D01*
X65D01*
X57Y43D01*
X350Y1590D02*
X342Y1606D01*
X358D01*
X350Y1590D01*
X237Y1638D02*
X229Y1654D01*
X245D01*
X237Y1638D01*
X283Y1551D02*
X275Y1567D01*
X291D01*
X283Y1551D01*
X390Y1590D02*
X382Y1606D01*
X398D01*
X390Y1590D01*
X307Y1819D02*
X299Y1835D01*
X315D01*
X307Y1819D01*
X260D02*
X252Y1835D01*
X268D01*
X260Y1819D01*
X213Y1709D02*
X205Y1725D01*
X221D01*
X213Y1709D01*
Y1453D02*
X205Y1469D01*
X221D01*
X213Y1453D01*
Y1429D02*
X205Y1445D01*
X221D01*
X213Y1429D01*
X508Y1413D02*
X500Y1429D01*
X516D01*
X508Y1413D01*
X531Y1445D02*
X523Y1461D01*
X539D01*
X531Y1445D01*
X500Y303D02*
X492Y319D01*
X508D01*
X500Y303D01*
X429Y323D02*
X421Y339D01*
X437D01*
X429Y323D01*
X75Y768D02*
X67Y784D01*
X83D01*
X75Y768D01*
X47Y732D02*
X39Y748D01*
X55D01*
X47Y732D01*
Y551D02*
X39Y567D01*
X55D01*
X47Y551D01*
Y854D02*
X39Y870D01*
X55D01*
X47Y854D01*
X500Y1933D02*
X492Y1949D01*
X508D01*
X500Y1933D01*
X213Y1787D02*
X205Y1803D01*
X221D01*
X213Y1787D01*
X315D02*
X307Y1803D01*
X323D01*
X315Y1787D01*
X319Y1752D02*
X311Y1768D01*
X327D01*
X319Y1752D01*
X354Y1894D02*
X346Y1910D01*
X362D01*
X354Y1894D01*
X582Y685D02*
X574Y701D01*
X590D01*
X582Y685D01*
Y878D02*
X574Y894D01*
X590D01*
X582Y878D01*
Y1043D02*
X574Y1059D01*
X590D01*
X582Y1043D01*
X626Y1614D02*
X618Y1630D01*
X634D01*
X626Y1614D01*
X925Y850D02*
X917Y866D01*
X933D01*
X925Y850D01*
X676Y1540D02*
X668Y1556D01*
X684D01*
X676Y1540D01*
X879Y2045D02*
X871Y2061D01*
X887D01*
X879Y2045D01*
X59Y2035D02*
X51Y2051D01*
X67D01*
X59Y2035D01*
X57Y1988D02*
X49Y2004D01*
X65D01*
X57Y1988D01*
Y1909D02*
X49Y1925D01*
X65D01*
X57Y1909D01*
X740Y51D02*
X732Y67D01*
X748D01*
X740Y51D01*
X925Y98D02*
X917Y114D01*
X933D01*
X925Y98D01*
X57Y147D02*
X49Y163D01*
X65D01*
X57Y147D01*
Y248D02*
X49Y264D01*
X65D01*
X57Y248D01*
Y417D02*
X49Y433D01*
X65D01*
X57Y417D01*
X55Y504D02*
X47Y520D01*
X63D01*
X55Y504D01*
X457Y1268D02*
X449Y1284D01*
X465D01*
X457Y1268D01*
X559Y1563D02*
X551Y1579D01*
X567D01*
X559Y1563D01*
X654Y2020D02*
X646Y2036D01*
X662D01*
X654Y2020D01*
X437Y2000D02*
X429Y2016D01*
X445D01*
X437Y2000D01*
X445Y1644D02*
X437Y1660D01*
X453D01*
X445Y1644D01*
X354Y1433D02*
X346Y1449D01*
X362D01*
X354Y1433D01*
X890Y1740D02*
X882Y1756D01*
X898D01*
X890Y1740D01*
X685Y1485D02*
X677Y1501D01*
X693D01*
X685Y1485D01*
X748Y1421D02*
X740Y1437D01*
X756D01*
X748Y1421D01*
X783Y1661D02*
X775Y1677D01*
X791D01*
X783Y1661D01*
X776Y1575D02*
X768Y1591D01*
X784D01*
X776Y1575D01*
X522Y1220D02*
X514Y1236D01*
X530D01*
X522Y1220D01*
X929Y940D02*
X921Y956D01*
X937D01*
X929Y940D01*
X91Y1177D02*
X83Y1193D01*
X99D01*
X91Y1177D01*
X63Y1114D02*
X55Y1130D01*
X71D01*
X63Y1114D01*
X71Y1023D02*
X63Y1039D01*
X79D01*
X71Y1023D01*
X492Y1067D02*
X484Y1083D01*
X500D01*
X492Y1067D01*
X583Y1205D02*
X575Y1221D01*
X591D01*
X583Y1205D01*
X504Y1342D02*
X496Y1358D01*
X512D01*
X504Y1342D01*
X91Y1327D02*
X83Y1343D01*
X99D01*
X91Y1327D01*
X697Y1035D02*
X689Y1051D01*
X705D01*
X697Y1035D01*
X650Y1236D02*
X642Y1252D01*
X658D01*
X650Y1236D01*
X260Y2149D02*
X252Y2165D01*
X268D01*
X260Y2149D01*
X307Y2110D02*
X299Y2126D01*
X315D01*
X307Y2110D01*
X311Y55D02*
X303Y71D01*
X319D01*
X311Y55D01*
X319Y197D02*
X311Y213D01*
X327D01*
X319Y197D01*
X669D02*
X661Y213D01*
X677D01*
X669Y197D01*
X673Y55D02*
X665Y71D01*
X681D01*
X673Y55D01*
X850Y2130D02*
X842Y2146D01*
X858D01*
X850Y2130D01*
X685D02*
X677Y2146D01*
X693D01*
X685Y2130D01*
X142Y2134D02*
X134Y2150D01*
X150D01*
X142Y2134D01*
X925Y1252D02*
X917Y1268D01*
X933D01*
X925Y1252D01*
X941Y2086D02*
X933Y2102D01*
X949D01*
X941Y2086D01*
X760Y2130D02*
X752Y2146D01*
X768D01*
X760Y2130D01*
X213D02*
X205Y2146D01*
X221D01*
X213Y2130D01*
X51Y1602D02*
X43Y1618D01*
X59D01*
X51Y1602D01*
X63Y1153D02*
X55Y1169D01*
X71D01*
X63Y1153D01*
X457Y228D02*
X449Y244D01*
X465D01*
X457Y228D01*
X343Y256D02*
X335Y272D01*
X351D01*
X343Y256D01*
X409Y252D02*
X401Y268D01*
X417D01*
X409Y252D01*
X286Y334D02*
X278Y350D01*
X294D01*
X286Y334D01*
X298Y302D02*
X290Y318D01*
X306D01*
X298Y302D01*
X319Y276D02*
X311Y292D01*
X327D01*
X319Y276D01*
X449Y253D02*
X441Y269D01*
X457D01*
X449Y253D01*
X391Y322D02*
X383Y338D01*
X399D01*
X391Y322D01*
X359Y331D02*
X351Y347D01*
X367D01*
X359Y331D01*
X351Y364D02*
X343Y380D01*
X359D01*
X351Y364D01*
X79Y886D02*
X71Y902D01*
X87D01*
X79Y886D01*
X709Y248D02*
X701Y264D01*
X717D01*
X709Y248D01*
X685Y248D02*
X677Y264D01*
X693D01*
X685Y248D01*
X663Y248D02*
X655Y264D01*
X671D01*
X663Y248D01*
X693Y563D02*
X685Y579D01*
X701D01*
X693Y563D01*
X635Y298D02*
X627Y314D01*
X643D01*
X635Y298D01*
X650Y346D02*
X642Y362D01*
X658D01*
X650Y346D01*
X370Y228D02*
X362Y244D01*
X378D01*
X370Y228D01*
X319Y23D02*
X311Y39D01*
X327D01*
X319Y23D01*
X673D02*
X665Y39D01*
X681D01*
X673Y23D01*
X252Y362D02*
X244Y378D01*
X260D01*
X252Y362D01*
X201D02*
X193Y378D01*
X209D01*
X201Y362D01*
X287Y508D02*
X279Y524D01*
X295D01*
X287Y508D01*
Y567D02*
X279Y583D01*
X295D01*
X287Y567D01*
X402Y1252D02*
X394Y1268D01*
X410D01*
X402Y1252D01*
X283D02*
X275Y1268D01*
X291D01*
X283Y1252D01*
X343D02*
X335Y1268D01*
X351D01*
X343Y1252D01*
X130Y1146D02*
X122Y1162D01*
X138D01*
X130Y1146D01*
X772Y181D02*
X764Y197D01*
X780D01*
X772Y181D01*
X756Y315D02*
X748Y331D01*
X764D01*
X756Y315D01*
X752Y342D02*
X744Y358D01*
X760D01*
X752Y342D01*
X768Y275D02*
X760Y291D01*
X776D01*
X768Y275D01*
X390Y366D02*
X382Y382D01*
X398D01*
X390Y366D01*
X906Y212D02*
X898Y228D01*
X914D01*
X906Y212D01*
X953Y338D02*
X945Y354D01*
X961D01*
X953Y338D01*
X949Y425D02*
X941Y441D01*
X957D01*
X949Y425D01*
Y638D02*
X941Y654D01*
X957D01*
X949Y638D01*
X929Y744D02*
X921Y760D01*
X937D01*
X929Y744D01*
X697Y740D02*
X689Y756D01*
X705D01*
X697Y740D01*
X811Y1142D02*
X803Y1158D01*
X819D01*
X811Y1142D01*
X752Y1197D02*
X744Y1213D01*
X760D01*
X752Y1197D01*
Y1236D02*
X744Y1252D01*
X760D01*
X752Y1236D01*
X724Y1511D02*
X716Y1527D01*
X732D01*
X724Y1511D01*
X91Y1772D02*
X83Y1788D01*
X99D01*
X91Y1772D01*
X945Y303D02*
X937Y319D01*
X953D01*
X945Y303D01*
X894Y366D02*
X886Y382D01*
X902D01*
X894Y366D01*
X697Y504D02*
X689Y520D01*
X705D01*
X697Y504D01*
Y799D02*
X689Y815D01*
X705D01*
X697Y799D01*
Y976D02*
X689Y992D01*
X705D01*
X697Y976D01*
X815Y642D02*
X807Y658D01*
X823D01*
X815Y642D01*
X433Y366D02*
X425Y382D01*
X441D01*
X433Y366D01*
X874Y545D02*
X866Y561D01*
X882D01*
X874Y545D01*
X575Y366D02*
X567Y382D01*
X583D01*
X575Y366D01*
X484D02*
X476Y382D01*
X492D01*
X484Y366D01*
X953Y480D02*
X945Y496D01*
X961D01*
X953Y480D01*
X693Y862D02*
X685Y878D01*
X701D01*
X693Y862D01*
X650Y1181D02*
X642Y1197D01*
X658D01*
X650Y1181D01*
X571Y1319D02*
X563Y1335D01*
X579D01*
X571Y1319D01*
D90*
X717Y1761D02*
G03*
X717Y1761I-8J0D01*
G01*
Y1861D02*
G03*
X717Y1861I-8J0D01*
G01*
X150Y1602D02*
G03*
X150Y1602I-8J0D01*
G01*
Y1802D02*
G03*
X150Y1802I-8J0D01*
G01*
Y1902D02*
G03*
X150Y1902I-8J0D01*
G01*
Y2002D02*
G03*
X150Y2002I-8J0D01*
G01*
Y1702D02*
G03*
X150Y1702I-8J0D01*
G01*
Y1202D02*
G03*
X150Y1202I-8J0D01*
G01*
Y1402D02*
G03*
X150Y1402I-8J0D01*
G01*
Y1502D02*
G03*
X150Y1502I-8J0D01*
G01*
Y1302D02*
G03*
X150Y1302I-8J0D01*
G01*
Y902D02*
G03*
X150Y902I-8J0D01*
G01*
Y1102D02*
G03*
X150Y1102I-8J0D01*
G01*
Y1002D02*
G03*
X150Y1002I-8J0D01*
G01*
Y502D02*
G03*
X150Y502I-8J0D01*
G01*
Y702D02*
G03*
X150Y702I-8J0D01*
G01*
Y802D02*
G03*
X150Y802I-8J0D01*
G01*
Y602D02*
G03*
X150Y602I-8J0D01*
G01*
Y102D02*
G03*
X150Y102I-8J0D01*
G01*
Y302D02*
G03*
X150Y302I-8J0D01*
G01*
Y402D02*
G03*
X150Y402I-8J0D01*
G01*
Y202D02*
G03*
X150Y202I-8J0D01*
G01*
X850Y1902D02*
G03*
X850Y1902I-8J0D01*
G01*
Y1702D02*
G03*
X850Y1702I-8J0D01*
G01*
Y1802D02*
G03*
X850Y1802I-8J0D01*
G01*
Y2002D02*
G03*
X850Y2002I-8J0D01*
G01*
Y1502D02*
G03*
X850Y1502I-8J0D01*
G01*
Y1302D02*
G03*
X850Y1302I-8J0D01*
G01*
Y1402D02*
G03*
X850Y1402I-8J0D01*
G01*
Y1602D02*
G03*
X850Y1602I-8J0D01*
G01*
Y1102D02*
G03*
X850Y1102I-8J0D01*
G01*
Y1002D02*
G03*
X850Y1002I-8J0D01*
G01*
Y1202D02*
G03*
X850Y1202I-8J0D01*
G01*
Y802D02*
G03*
X850Y802I-8J0D01*
G01*
Y602D02*
G03*
X850Y602I-8J0D01*
G01*
Y702D02*
G03*
X850Y702I-8J0D01*
G01*
Y902D02*
G03*
X850Y902I-8J0D01*
G01*
Y402D02*
G03*
X850Y402I-8J0D01*
G01*
Y102D02*
G03*
X850Y102I-8J0D01*
G01*
Y202D02*
G03*
X850Y202I-8J0D01*
G01*
Y302D02*
G03*
X850Y302I-8J0D01*
G01*
Y502D02*
G03*
X850Y502I-8J0D01*
G01*
M02*
