G04*
G04 #@! TF.GenerationSoftware,Altium Limited,Altium Designer,24.1.2 (44)*
G04*
G04 Layer_Color=8421504*
%FSLAX23Y23*%
%MOIN*%
G70*
G04*
G04 #@! TF.SameCoordinates,2B9B36D7-F7CC-424B-A3D7-6DE2A24948DF*
G04*
G04*
G04 #@! TF.FilePolarity,Positive*
G04*
G01*
G75*
%ADD15R,0.047X0.071*%
%ADD16R,0.024X0.061*%
%ADD17R,0.048X0.036*%
%ADD18R,0.024X0.026*%
G04:AMPARAMS|DCode=19|XSize=47mil|YSize=26mil|CornerRadius=6mil|HoleSize=0mil|Usage=FLASHONLY|Rotation=180.000|XOffset=0mil|YOffset=0mil|HoleType=Round|Shape=RoundedRectangle|*
%AMROUNDEDRECTD19*
21,1,0.047,0.013,0,0,180.0*
21,1,0.034,0.026,0,0,180.0*
1,1,0.013,-0.017,0.006*
1,1,0.013,0.017,0.006*
1,1,0.013,0.017,-0.006*
1,1,0.013,-0.017,-0.006*
%
%ADD19ROUNDEDRECTD19*%
G04:AMPARAMS|DCode=20|XSize=69mil|YSize=21mil|CornerRadius=10mil|HoleSize=0mil|Usage=FLASHONLY|Rotation=270.000|XOffset=0mil|YOffset=0mil|HoleType=Round|Shape=RoundedRectangle|*
%AMROUNDEDRECTD20*
21,1,0.069,0.000,0,0,270.0*
21,1,0.049,0.021,0,0,270.0*
1,1,0.021,0.000,-0.024*
1,1,0.021,0.000,0.024*
1,1,0.021,0.000,0.024*
1,1,0.021,0.000,-0.024*
%
%ADD20ROUNDEDRECTD20*%
%ADD21R,0.021X0.069*%
%ADD22R,0.022X0.020*%
%ADD23R,0.020X0.022*%
%ADD24R,0.047X0.047*%
%ADD25R,0.125X0.220*%
%ADD26R,0.015X0.050*%
G04:AMPARAMS|DCode=27|XSize=74mil|YSize=24mil|CornerRadius=12mil|HoleSize=0mil|Usage=FLASHONLY|Rotation=0.000|XOffset=0mil|YOffset=0mil|HoleType=Round|Shape=RoundedRectangle|*
%AMROUNDEDRECTD27*
21,1,0.074,0.000,0,0,0.0*
21,1,0.050,0.024,0,0,0.0*
1,1,0.024,0.025,0.000*
1,1,0.024,-0.025,0.000*
1,1,0.024,-0.025,0.000*
1,1,0.024,0.025,0.000*
%
%ADD27ROUNDEDRECTD27*%
%ADD28R,0.074X0.024*%
%ADD29R,0.037X0.037*%
%ADD30R,0.026X0.024*%
%ADD31R,0.047X0.047*%
%ADD32R,0.020X0.028*%
%ADD33R,0.039X0.079*%
%ADD34R,0.079X0.079*%
%ADD35R,0.079X0.039*%
%ADD36R,0.079X0.079*%
%ADD37R,0.043X0.026*%
%ADD38R,0.012X0.020*%
D15*
X220Y1549D02*
D03*
X441D02*
D03*
D16*
X272Y1649D02*
D03*
X311D02*
D03*
X350D02*
D03*
X390D02*
D03*
D17*
X563Y1651D02*
D03*
Y1522D02*
D03*
X925Y2013D02*
D03*
Y1884D02*
D03*
D18*
X47Y1092D02*
D03*
Y1057D02*
D03*
Y1013D02*
D03*
Y979D02*
D03*
Y929D02*
D03*
Y894D02*
D03*
Y817D02*
D03*
Y782D02*
D03*
Y672D02*
D03*
Y706D02*
D03*
Y624D02*
D03*
Y589D02*
D03*
X921Y1159D02*
D03*
Y1124D02*
D03*
Y1013D02*
D03*
Y979D02*
D03*
X610Y302D02*
D03*
Y336D02*
D03*
X772Y219D02*
D03*
Y254D02*
D03*
X925Y246D02*
D03*
Y281D02*
D03*
X921Y341D02*
D03*
Y376D02*
D03*
Y431D02*
D03*
Y466D02*
D03*
Y644D02*
D03*
Y679D02*
D03*
Y923D02*
D03*
Y888D02*
D03*
X429Y1246D02*
D03*
Y1211D02*
D03*
X921Y1054D02*
D03*
Y1088D02*
D03*
X575Y336D02*
D03*
Y302D02*
D03*
X539Y302D02*
D03*
Y336D02*
D03*
X925Y1537D02*
D03*
Y1502D02*
D03*
X925Y1714D02*
D03*
Y1680D02*
D03*
X370Y1246D02*
D03*
Y1211D02*
D03*
X311Y1246D02*
D03*
Y1211D02*
D03*
X614Y1246D02*
D03*
Y1211D02*
D03*
X551Y1246D02*
D03*
Y1211D02*
D03*
X492Y1246D02*
D03*
Y1211D02*
D03*
D19*
X302Y2084D02*
D03*
X139D02*
D03*
X302Y2168D02*
D03*
X139D02*
D03*
X686D02*
D03*
X849D02*
D03*
X686Y2084D02*
D03*
X849D02*
D03*
D20*
X724Y1572D02*
D03*
X699Y1641D02*
D03*
D21*
X750D02*
D03*
D22*
X434Y295D02*
D03*
X400D02*
D03*
X688Y307D02*
D03*
X722D02*
D03*
X722Y335D02*
D03*
X688D02*
D03*
X722Y362D02*
D03*
X688D02*
D03*
X726Y1244D02*
D03*
X692D02*
D03*
X726Y1205D02*
D03*
X692D02*
D03*
X647Y1520D02*
D03*
X681D02*
D03*
X259Y1760D02*
D03*
X293D02*
D03*
D23*
X369Y262D02*
D03*
Y296D02*
D03*
X461Y295D02*
D03*
Y329D02*
D03*
X533Y1419D02*
D03*
Y1385D02*
D03*
X906Y751D02*
D03*
Y785D02*
D03*
X654Y1651D02*
D03*
Y1617D02*
D03*
X744Y1463D02*
D03*
Y1497D02*
D03*
X720Y1430D02*
D03*
Y1396D02*
D03*
X602Y1294D02*
D03*
Y1328D02*
D03*
D24*
X756Y1311D02*
D03*
X677D02*
D03*
D25*
X406Y110D02*
D03*
X586D02*
D03*
D26*
X496Y25D02*
D03*
D27*
X449Y1350D02*
D03*
X375Y1313D02*
D03*
D28*
Y1388D02*
D03*
D29*
X921Y589D02*
D03*
Y530D02*
D03*
X272Y1303D02*
D03*
Y1362D02*
D03*
D30*
X258Y1413D02*
D03*
X293D02*
D03*
X34Y1213D02*
D03*
X69D02*
D03*
X34Y1433D02*
D03*
X69D02*
D03*
X34Y1650D02*
D03*
X69D02*
D03*
D31*
X51Y1571D02*
D03*
Y1492D02*
D03*
Y1705D02*
D03*
Y1783D02*
D03*
Y1346D02*
D03*
Y1268D02*
D03*
D32*
X925Y1791D02*
D03*
Y1756D02*
D03*
Y1618D02*
D03*
Y1583D02*
D03*
D33*
X669Y429D02*
D03*
X433D02*
D03*
X374D02*
D03*
X610D02*
D03*
X551D02*
D03*
X492D02*
D03*
X315Y1130D02*
D03*
X374D02*
D03*
X433D02*
D03*
X492D02*
D03*
X551D02*
D03*
X610D02*
D03*
X669D02*
D03*
X315Y429D02*
D03*
D34*
X230D02*
D03*
X754Y1130D02*
D03*
D35*
X230Y691D02*
D03*
Y1045D02*
D03*
Y868D02*
D03*
Y927D02*
D03*
Y809D02*
D03*
Y986D02*
D03*
Y750D02*
D03*
X754Y691D02*
D03*
Y927D02*
D03*
Y986D02*
D03*
Y1045D02*
D03*
Y868D02*
D03*
Y809D02*
D03*
Y750D02*
D03*
X230Y573D02*
D03*
X754Y632D02*
D03*
X230Y514D02*
D03*
X754Y573D02*
D03*
X230Y632D02*
D03*
X754Y514D02*
D03*
D36*
Y429D02*
D03*
X230Y1130D02*
D03*
D37*
X669Y1388D02*
D03*
X575D02*
D03*
Y1425D02*
D03*
Y1463D02*
D03*
X669D02*
D03*
D38*
X291Y1795D02*
D03*
X260D02*
D03*
X291Y1850D02*
D03*
X260D02*
D03*
M02*
