G04*
G04 #@! TF.GenerationSoftware,Altium Limited,Altium Designer,24.1.2 (44)*
G04*
G04 Layer_Physical_Order=3*
G04 Layer_Color=16776960*
%FSLAX23Y23*%
%MOIN*%
G70*
G04*
G04 #@! TF.SameCoordinates,2B9B36D7-F7CC-424B-A3D7-6DE2A24948DF*
G04*
G04*
G04 #@! TF.FilePolarity,Positive*
G04*
G01*
G75*
%ADD24R,0.047X0.047*%
%ADD66C,0.010*%
%ADD67C,0.025*%
%ADD68C,0.030*%
%ADD69C,0.040*%
%ADD70C,0.047*%
%ADD71O,0.071X0.059*%
%ADD73C,0.059*%
%ADD76C,0.024*%
G36*
X872Y2188D02*
X872Y2188D01*
X872Y2188D01*
X880D01*
X897Y2185D01*
X912Y2178D01*
X926Y2169D01*
X938Y2157D01*
X947Y2143D01*
X954Y2127D01*
X957Y2111D01*
Y2102D01*
X957Y2102D01*
X957Y2102D01*
X959Y510D01*
X954Y506D01*
X949D01*
X943Y503D01*
X938Y498D01*
X935Y492D01*
Y485D01*
X938Y478D01*
X943Y473D01*
X949Y470D01*
X956D01*
X959Y469D01*
X959Y329D01*
X954Y327D01*
X948Y329D01*
X943D01*
X921Y350D01*
X918Y353D01*
X913Y354D01*
X913Y354D01*
X904D01*
X903Y359D01*
X904Y359D01*
X909Y364D01*
X912Y370D01*
Y378D01*
X909Y384D01*
X905Y388D01*
Y433D01*
X904Y437D01*
X902Y441D01*
X902Y441D01*
X882Y461D01*
X878Y463D01*
X874Y464D01*
X874Y464D01*
X855D01*
X854Y469D01*
X855Y469D01*
X864Y474D01*
X870Y481D01*
X875Y489D01*
X877Y498D01*
Y507D01*
X875Y516D01*
X870Y524D01*
X864Y531D01*
X855Y535D01*
X846Y538D01*
X837D01*
X828Y535D01*
X820Y531D01*
X813Y524D01*
X809Y516D01*
X806Y507D01*
Y498D01*
X809Y489D01*
X813Y481D01*
X820Y474D01*
X828Y469D01*
X829Y469D01*
X828Y464D01*
X820D01*
X712Y572D01*
X711Y572D01*
X711Y573D01*
Y574D01*
X708Y581D01*
X703Y586D01*
X696Y589D01*
X689D01*
X683Y586D01*
X678Y581D01*
X676Y578D01*
X671Y579D01*
Y784D01*
X673Y786D01*
X697D01*
X705Y787D01*
X712Y792D01*
X717Y799D01*
X718Y807D01*
X717Y815D01*
X712Y822D01*
X705Y827D01*
X697Y829D01*
X676D01*
X671Y833D01*
Y862D01*
X676Y863D01*
X678Y860D01*
X683Y855D01*
X689Y852D01*
X696D01*
X703Y855D01*
X708Y860D01*
X711Y867D01*
Y874D01*
X708Y880D01*
X703Y885D01*
X696Y888D01*
X689D01*
X683Y885D01*
X678Y880D01*
X676Y877D01*
X671Y878D01*
Y1189D01*
X671Y1189D01*
X671Y1189D01*
Y1244D01*
X671Y1244D01*
X671Y1245D01*
Y1461D01*
X670Y1469D01*
X665Y1476D01*
X648Y1493D01*
Y1559D01*
X724Y1635D01*
X729Y1642D01*
X731Y1650D01*
Y1729D01*
X732Y1730D01*
X740Y1736D01*
X746Y1743D01*
X749Y1752D01*
X750Y1761D01*
X749Y1770D01*
X746Y1779D01*
X740Y1786D01*
X732Y1792D01*
X724Y1796D01*
X715Y1797D01*
X703D01*
X693Y1796D01*
X685Y1792D01*
X677Y1786D01*
X672Y1779D01*
X668Y1770D01*
X667Y1761D01*
X668Y1752D01*
X672Y1743D01*
X677Y1736D01*
X685Y1730D01*
X688Y1729D01*
Y1659D01*
X611Y1583D01*
X607Y1576D01*
X605Y1567D01*
Y1484D01*
X607Y1476D01*
X611Y1469D01*
X629Y1452D01*
Y1245D01*
X629Y1244D01*
X629Y1244D01*
Y1189D01*
X629Y1189D01*
X629Y1189D01*
Y807D01*
Y429D01*
X630Y421D01*
X635Y414D01*
X664Y385D01*
Y372D01*
X659Y370D01*
X653Y372D01*
X646D01*
X640Y369D01*
X635Y364D01*
X632Y358D01*
Y351D01*
X635Y344D01*
X640Y339D01*
X646Y337D01*
X653D01*
X659Y339D01*
X664Y337D01*
Y278D01*
X659Y274D01*
X653Y271D01*
X648Y266D01*
X646Y259D01*
Y252D01*
X648Y246D01*
X653Y241D01*
X660Y238D01*
X667D01*
X672Y240D01*
X677Y237D01*
X685Y235D01*
X693Y237D01*
X699Y241D01*
X705Y238D01*
X713D01*
X719Y241D01*
X724Y246D01*
X727Y252D01*
Y259D01*
X724Y266D01*
X719Y271D01*
X713Y273D01*
X709D01*
X706Y276D01*
Y394D01*
X705Y402D01*
X700Y409D01*
X671Y438D01*
Y563D01*
X676Y564D01*
X678Y561D01*
X683Y556D01*
X689Y553D01*
X696D01*
X698Y554D01*
X807Y445D01*
X807Y445D01*
X811Y442D01*
X815Y442D01*
X831D01*
X832Y437D01*
X828Y435D01*
X820Y431D01*
X813Y424D01*
X809Y416D01*
X806Y407D01*
Y398D01*
X809Y389D01*
X813Y381D01*
X820Y374D01*
X828Y369D01*
X837Y367D01*
X846D01*
X855Y369D01*
X864Y374D01*
X870Y381D01*
X875Y389D01*
X877Y398D01*
Y407D01*
X875Y416D01*
X870Y424D01*
X864Y431D01*
X855Y435D01*
X851Y437D01*
X852Y442D01*
X869D01*
X882Y428D01*
Y388D01*
X879Y384D01*
X876Y378D01*
Y370D01*
X879Y364D01*
X875Y360D01*
X874Y361D01*
X870Y362D01*
X870Y362D01*
X820D01*
X791Y390D01*
Y429D01*
X790Y433D01*
X787Y437D01*
X787Y437D01*
X715Y510D01*
Y515D01*
X712Y522D01*
X707Y527D01*
X700Y530D01*
X693D01*
X687Y527D01*
X682Y522D01*
X679Y515D01*
Y508D01*
X682Y502D01*
X687Y497D01*
X693Y494D01*
X699D01*
X768Y424D01*
Y386D01*
X768Y386D01*
X769Y382D01*
X772Y378D01*
X807Y342D01*
X807Y342D01*
X811Y340D01*
X815Y339D01*
X817D01*
X818Y334D01*
X817Y334D01*
X810Y327D01*
X805Y318D01*
X802Y308D01*
Y307D01*
X842D01*
X881D01*
Y308D01*
X879Y318D01*
X873Y327D01*
X873Y327D01*
X875Y332D01*
X878Y331D01*
X909D01*
X927Y313D01*
Y307D01*
X930Y301D01*
X935Y296D01*
X941Y293D01*
X948D01*
X954Y296D01*
X959Y293D01*
X959Y102D01*
Y94D01*
X956Y77D01*
X949Y61D01*
X940Y47D01*
X928Y34D01*
X913Y25D01*
X897Y18D01*
X880Y15D01*
X90D01*
X75Y18D01*
X61Y24D01*
X48Y32D01*
X37Y43D01*
X28Y56D01*
X22Y71D01*
X19Y86D01*
Y94D01*
Y2102D01*
Y2111D01*
X22Y2127D01*
X29Y2143D01*
X38Y2157D01*
X50Y2169D01*
X64Y2178D01*
X80Y2185D01*
X96Y2188D01*
X105D01*
X343Y2188D01*
X344Y2187D01*
X347Y2185D01*
Y2075D01*
X347Y2073D01*
X347Y2071D01*
X348Y2070D01*
X348Y2069D01*
X348Y2069D01*
X350Y2063D01*
X352Y2060D01*
X353Y2058D01*
X357Y2053D01*
X360Y2051D01*
X362Y2049D01*
X368Y2046D01*
X370Y2046D01*
X371Y2045D01*
X375Y2044D01*
X376Y2044D01*
X378Y2044D01*
X610Y2045D01*
X611Y2045D01*
X612Y2045D01*
X615Y2046D01*
X617Y2046D01*
X620Y2047D01*
X626Y2050D01*
X631Y2053D01*
X636Y2058D01*
X639Y2063D01*
X642Y2070D01*
X642Y2072D01*
X643Y2074D01*
X643Y2078D01*
X643Y2078D01*
X643Y2079D01*
Y2183D01*
X643Y2184D01*
X646Y2188D01*
X648Y2188D01*
X651Y2189D01*
X651Y2189D01*
X651Y2189D01*
X652Y2189D01*
X872Y2188D01*
D02*
G37*
G36*
X688Y810D02*
X650Y772D01*
Y843D01*
X688Y810D01*
D02*
G37*
G36*
X712Y261D02*
Y250D01*
X656D01*
Y261D01*
X684Y289D01*
X712Y261D01*
D02*
G37*
%LPC*%
G36*
X311Y2136D02*
X304D01*
X297Y2133D01*
X292Y2128D01*
X289Y2122D01*
Y2115D01*
X292Y2108D01*
X297Y2103D01*
X304Y2100D01*
X311D01*
X317Y2103D01*
X322Y2108D01*
X325Y2115D01*
Y2122D01*
X322Y2128D01*
X317Y2133D01*
X311Y2136D01*
D02*
G37*
G36*
X882Y2071D02*
X875D01*
X869Y2068D01*
X864Y2063D01*
X861Y2056D01*
Y2049D01*
X864Y2043D01*
X869Y2038D01*
X875Y2035D01*
X882D01*
X889Y2038D01*
X894Y2043D01*
X896Y2049D01*
Y2056D01*
X894Y2063D01*
X889Y2068D01*
X882Y2071D01*
D02*
G37*
G36*
X177Y2038D02*
X106D01*
Y1967D01*
X177D01*
Y2038D01*
D02*
G37*
G36*
X846D02*
X837D01*
X828Y2035D01*
X820Y2031D01*
X813Y2024D01*
X809Y2016D01*
X806Y2007D01*
Y2004D01*
X768Y1966D01*
X766Y1966D01*
X763Y1968D01*
Y1979D01*
X760Y1991D01*
X754Y2002D01*
X745Y2011D01*
X734Y2017D01*
X722Y2021D01*
X710D01*
X698Y2017D01*
X687Y2011D01*
X678Y2002D01*
X672Y1991D01*
X669Y1979D01*
Y1967D01*
X672Y1955D01*
X678Y1944D01*
X687Y1935D01*
X698Y1929D01*
X710Y1926D01*
X722D01*
X734Y1929D01*
X745Y1935D01*
X754Y1944D01*
X755Y1946D01*
X760Y1944D01*
Y1680D01*
X758Y1676D01*
X757Y1669D01*
X758Y1663D01*
X761Y1656D01*
X765Y1651D01*
X770Y1647D01*
X777Y1644D01*
X783Y1643D01*
X790Y1644D01*
X797Y1647D01*
X802Y1651D01*
X805Y1653D01*
X805Y1653D01*
X809Y1659D01*
X812Y1665D01*
X812Y1672D01*
Y1674D01*
X817Y1676D01*
X820Y1674D01*
X828Y1669D01*
X837Y1667D01*
X846D01*
X855Y1669D01*
X864Y1674D01*
X870Y1681D01*
X875Y1689D01*
X877Y1698D01*
Y1707D01*
X875Y1716D01*
X870Y1724D01*
X864Y1731D01*
X855Y1735D01*
X846Y1738D01*
X837D01*
X828Y1735D01*
X820Y1731D01*
X817Y1728D01*
X812Y1730D01*
Y1769D01*
X817Y1771D01*
X817Y1771D01*
X826Y1766D01*
X836Y1763D01*
X837D01*
Y1802D01*
Y1842D01*
X836D01*
X826Y1839D01*
X817Y1834D01*
X817Y1834D01*
X812Y1835D01*
Y1874D01*
X817Y1876D01*
X820Y1874D01*
X828Y1869D01*
X837Y1867D01*
X846D01*
X855Y1869D01*
X864Y1874D01*
X870Y1881D01*
X875Y1889D01*
X877Y1898D01*
Y1907D01*
X875Y1916D01*
X870Y1924D01*
X864Y1931D01*
X855Y1935D01*
X846Y1938D01*
X837D01*
X828Y1935D01*
X820Y1931D01*
X817Y1928D01*
X812Y1930D01*
Y1936D01*
X843Y1967D01*
X846D01*
X855Y1969D01*
X864Y1974D01*
X870Y1981D01*
X875Y1989D01*
X877Y1998D01*
Y2007D01*
X875Y2016D01*
X870Y2024D01*
X864Y2031D01*
X855Y2035D01*
X846Y2038D01*
D02*
G37*
G36*
X274Y2021D02*
X261D01*
X249Y2017D01*
X238Y2011D01*
X229Y2002D01*
X223Y1991D01*
X220Y1979D01*
Y1967D01*
X223Y1955D01*
X229Y1944D01*
X238Y1935D01*
X249Y1929D01*
X261Y1926D01*
X274D01*
X286Y1929D01*
X296Y1935D01*
X305Y1944D01*
X311Y1955D01*
X315Y1967D01*
Y1979D01*
X311Y1991D01*
X305Y2002D01*
X296Y2011D01*
X286Y2017D01*
X274Y2021D01*
D02*
G37*
G36*
X146Y1938D02*
X137D01*
X128Y1935D01*
X120Y1931D01*
X113Y1924D01*
X109Y1916D01*
X106Y1907D01*
Y1898D01*
X109Y1889D01*
X113Y1881D01*
X120Y1874D01*
X128Y1869D01*
X137Y1867D01*
X146D01*
X155Y1869D01*
X164Y1874D01*
X170Y1881D01*
X175Y1889D01*
X177Y1898D01*
Y1907D01*
X175Y1916D01*
X170Y1924D01*
X164Y1931D01*
X155Y1935D01*
X146Y1938D01*
D02*
G37*
G36*
X750Y1897D02*
X667D01*
Y1825D01*
X750D01*
Y1897D01*
D02*
G37*
G36*
X311Y1845D02*
X304D01*
X297Y1842D01*
X292Y1837D01*
X289Y1830D01*
Y1823D01*
X292Y1817D01*
X297Y1812D01*
X304Y1809D01*
X311D01*
X317Y1812D01*
X322Y1817D01*
X325Y1823D01*
Y1830D01*
X322Y1837D01*
X317Y1842D01*
X311Y1845D01*
D02*
G37*
G36*
X263D02*
X256D01*
X250Y1842D01*
X245Y1837D01*
X242Y1830D01*
Y1823D01*
X245Y1817D01*
X250Y1812D01*
X256Y1809D01*
X263D01*
X270Y1812D01*
X275Y1817D01*
X278Y1823D01*
Y1830D01*
X275Y1837D01*
X270Y1842D01*
X263Y1845D01*
D02*
G37*
G36*
X147Y1842D02*
X147D01*
Y1807D01*
X181D01*
Y1808D01*
X179Y1818D01*
X173Y1827D01*
X166Y1834D01*
X157Y1839D01*
X147Y1842D01*
D02*
G37*
G36*
X137D02*
X136D01*
X126Y1839D01*
X117Y1834D01*
X110Y1827D01*
X105Y1818D01*
X102Y1808D01*
Y1807D01*
X137D01*
Y1842D01*
D02*
G37*
G36*
X847D02*
X847D01*
Y1807D01*
X881D01*
Y1808D01*
X879Y1818D01*
X873Y1827D01*
X866Y1834D01*
X857Y1839D01*
X847Y1842D01*
D02*
G37*
G36*
X458Y1823D02*
Y1794D01*
X486D01*
X484Y1802D01*
X480Y1810D01*
X473Y1816D01*
X466Y1821D01*
X458Y1823D01*
D02*
G37*
G36*
X448Y1823D02*
X440Y1821D01*
X432Y1816D01*
X426Y1810D01*
X421Y1802D01*
X419Y1794D01*
X448D01*
Y1823D01*
D02*
G37*
G36*
X881Y1797D02*
X847D01*
Y1763D01*
X847D01*
X857Y1766D01*
X866Y1771D01*
X873Y1778D01*
X879Y1787D01*
X881Y1797D01*
Y1797D01*
D02*
G37*
G36*
X181Y1797D02*
X147D01*
Y1763D01*
X147D01*
X157Y1766D01*
X166Y1771D01*
X173Y1778D01*
X179Y1787D01*
X181Y1797D01*
Y1797D01*
D02*
G37*
G36*
X137D02*
X102D01*
Y1797D01*
X105Y1787D01*
X110Y1778D01*
X117Y1771D01*
X126Y1766D01*
X136Y1763D01*
X137D01*
Y1797D01*
D02*
G37*
G36*
X448Y1784D02*
X419D01*
X421Y1776D01*
X426Y1769D01*
X432Y1762D01*
X440Y1758D01*
X448Y1756D01*
Y1784D01*
D02*
G37*
G36*
X486D02*
X458D01*
Y1756D01*
X466Y1758D01*
X473Y1762D01*
X480Y1769D01*
X484Y1776D01*
X486Y1784D01*
D02*
G37*
G36*
X893Y1766D02*
X886D01*
X880Y1763D01*
X875Y1758D01*
X872Y1752D01*
Y1744D01*
X875Y1738D01*
X880Y1733D01*
X886Y1730D01*
X893D01*
X900Y1733D01*
X905Y1738D01*
X908Y1744D01*
Y1752D01*
X905Y1758D01*
X900Y1763D01*
X893Y1766D01*
D02*
G37*
G36*
X146Y1738D02*
X137D01*
X128Y1735D01*
X120Y1731D01*
X113Y1724D01*
X109Y1716D01*
X106Y1707D01*
Y1698D01*
X109Y1689D01*
X113Y1681D01*
X120Y1674D01*
X128Y1669D01*
X137Y1667D01*
X146D01*
X155Y1669D01*
X164Y1674D01*
X170Y1681D01*
X175Y1689D01*
X177Y1698D01*
Y1707D01*
X175Y1716D01*
X170Y1724D01*
X164Y1731D01*
X155Y1735D01*
X146Y1738D01*
D02*
G37*
G36*
X393Y1616D02*
X386D01*
X380Y1614D01*
X375Y1609D01*
X373Y1604D01*
X367D01*
X365Y1609D01*
X360Y1614D01*
X354Y1616D01*
X347D01*
X340Y1614D01*
X335Y1609D01*
X333Y1602D01*
Y1595D01*
X335Y1588D01*
X340Y1583D01*
X347Y1581D01*
X354D01*
X360Y1583D01*
X365Y1588D01*
X367Y1593D01*
X373D01*
X375Y1588D01*
X380Y1583D01*
X386Y1581D01*
X393D01*
X400Y1583D01*
X405Y1588D01*
X408Y1595D01*
Y1602D01*
X405Y1609D01*
X400Y1614D01*
X393Y1616D01*
D02*
G37*
G36*
X846Y1638D02*
X837D01*
X828Y1635D01*
X820Y1631D01*
X813Y1624D01*
X809Y1616D01*
X806Y1607D01*
Y1598D01*
X809Y1589D01*
X813Y1581D01*
X820Y1574D01*
X828Y1569D01*
X837Y1567D01*
X846D01*
X855Y1569D01*
X864Y1574D01*
X870Y1581D01*
X875Y1589D01*
X877Y1598D01*
Y1607D01*
X875Y1616D01*
X870Y1624D01*
X864Y1631D01*
X855Y1635D01*
X846Y1638D01*
D02*
G37*
G36*
X146D02*
X137D01*
X128Y1635D01*
X120Y1631D01*
X113Y1624D01*
X109Y1616D01*
X106Y1607D01*
Y1598D01*
X109Y1589D01*
X113Y1581D01*
X120Y1574D01*
X128Y1569D01*
X137Y1567D01*
X146D01*
X155Y1569D01*
X164Y1574D01*
X170Y1581D01*
X175Y1589D01*
X177Y1598D01*
Y1607D01*
X175Y1616D01*
X170Y1624D01*
X164Y1631D01*
X155Y1635D01*
X146Y1638D01*
D02*
G37*
G36*
X776Y1602D02*
X713D01*
X705Y1600D01*
X699Y1596D01*
X669Y1566D01*
X668Y1566D01*
X662Y1562D01*
X658Y1555D01*
X657Y1548D01*
X658Y1541D01*
X662Y1535D01*
X668Y1531D01*
X676Y1529D01*
X678D01*
X685Y1531D01*
X691Y1535D01*
X720Y1564D01*
X776D01*
X783Y1565D01*
X789Y1569D01*
X793Y1575D01*
X794Y1583D01*
X793Y1590D01*
X789Y1596D01*
X783Y1600D01*
X776Y1602D01*
D02*
G37*
G36*
X846Y1538D02*
X837D01*
X828Y1535D01*
X820Y1531D01*
X813Y1524D01*
X809Y1516D01*
X806Y1507D01*
Y1498D01*
X809Y1489D01*
X813Y1481D01*
X820Y1474D01*
X828Y1469D01*
X837Y1467D01*
X846D01*
X855Y1469D01*
X864Y1474D01*
X870Y1481D01*
X875Y1489D01*
X877Y1498D01*
Y1507D01*
X875Y1516D01*
X870Y1524D01*
X864Y1531D01*
X855Y1535D01*
X846Y1538D01*
D02*
G37*
G36*
X146D02*
X137D01*
X128Y1535D01*
X120Y1531D01*
X113Y1524D01*
X109Y1516D01*
X106Y1507D01*
Y1498D01*
X109Y1489D01*
X113Y1481D01*
X120Y1474D01*
X128Y1469D01*
X137Y1467D01*
X146D01*
X155Y1469D01*
X164Y1474D01*
X170Y1481D01*
X175Y1489D01*
X177Y1498D01*
Y1507D01*
X175Y1516D01*
X170Y1524D01*
X164Y1531D01*
X155Y1535D01*
X146Y1538D01*
D02*
G37*
G36*
X561Y1819D02*
X502D01*
Y1760D01*
X513D01*
Y1681D01*
X370Y1539D01*
X248D01*
X241Y1537D01*
X235Y1533D01*
X199Y1498D01*
X195Y1491D01*
X194Y1484D01*
Y1437D01*
X195Y1430D01*
X199Y1424D01*
X205Y1420D01*
X213Y1418D01*
X220Y1420D01*
X226Y1424D01*
X230Y1430D01*
X231Y1437D01*
Y1476D01*
X256Y1501D01*
X378D01*
X385Y1502D01*
X391Y1506D01*
X545Y1660D01*
X549Y1666D01*
X550Y1673D01*
Y1760D01*
X561D01*
Y1819D01*
D02*
G37*
G36*
X846Y1438D02*
X837D01*
X828Y1435D01*
X820Y1431D01*
X813Y1424D01*
X809Y1416D01*
X806Y1407D01*
Y1398D01*
X809Y1389D01*
X813Y1381D01*
X820Y1374D01*
X828Y1369D01*
X837Y1367D01*
X846D01*
X855Y1369D01*
X864Y1374D01*
X870Y1381D01*
X875Y1389D01*
X877Y1398D01*
Y1407D01*
X875Y1416D01*
X870Y1424D01*
X864Y1431D01*
X855Y1435D01*
X846Y1438D01*
D02*
G37*
G36*
X146D02*
X137D01*
X128Y1435D01*
X120Y1431D01*
X113Y1424D01*
X109Y1416D01*
X106Y1407D01*
Y1398D01*
X109Y1389D01*
X113Y1381D01*
X120Y1374D01*
X128Y1369D01*
X137Y1367D01*
X146D01*
X155Y1369D01*
X164Y1374D01*
X170Y1381D01*
X175Y1389D01*
X177Y1398D01*
Y1407D01*
X175Y1416D01*
X170Y1424D01*
X164Y1431D01*
X155Y1435D01*
X146Y1438D01*
D02*
G37*
G36*
X535Y1471D02*
X528D01*
X521Y1468D01*
X516Y1463D01*
X514Y1456D01*
Y1449D01*
X516Y1443D01*
X521Y1438D01*
X528Y1435D01*
X530D01*
Y1356D01*
X530Y1356D01*
X531Y1352D01*
X533Y1348D01*
X553Y1329D01*
Y1323D01*
X556Y1317D01*
X561Y1312D01*
X567Y1309D01*
X574D01*
X581Y1312D01*
X586Y1317D01*
X589Y1323D01*
Y1330D01*
X586Y1337D01*
X581Y1342D01*
X574Y1345D01*
X569D01*
X553Y1361D01*
Y1440D01*
X553Y1440D01*
X552Y1444D01*
X549Y1448D01*
X549Y1448D01*
X549Y1448D01*
X549Y1449D01*
Y1456D01*
X547Y1463D01*
X542Y1468D01*
X535Y1471D01*
D02*
G37*
G36*
X147Y1342D02*
X147D01*
Y1307D01*
X181D01*
Y1308D01*
X179Y1318D01*
X173Y1327D01*
X166Y1334D01*
X157Y1339D01*
X147Y1342D01*
D02*
G37*
G36*
X137D02*
X136D01*
X126Y1339D01*
X117Y1334D01*
X110Y1327D01*
X105Y1318D01*
X102Y1308D01*
Y1307D01*
X137D01*
Y1342D01*
D02*
G37*
G36*
X847D02*
X847D01*
Y1307D01*
X881D01*
Y1308D01*
X879Y1318D01*
X873Y1327D01*
X866Y1334D01*
X857Y1339D01*
X847Y1342D01*
D02*
G37*
G36*
X837D02*
X836D01*
X826Y1339D01*
X817Y1334D01*
X810Y1327D01*
X805Y1318D01*
X802Y1308D01*
Y1307D01*
X837D01*
Y1342D01*
D02*
G37*
G36*
X881Y1297D02*
X847D01*
Y1263D01*
X847D01*
X857Y1266D01*
X866Y1271D01*
X873Y1278D01*
X879Y1287D01*
X881Y1297D01*
Y1297D01*
D02*
G37*
G36*
X837D02*
X802D01*
Y1297D01*
X805Y1287D01*
X810Y1278D01*
X817Y1271D01*
X826Y1266D01*
X836Y1263D01*
X837D01*
Y1297D01*
D02*
G37*
G36*
X181Y1297D02*
X147D01*
Y1263D01*
X147D01*
X157Y1266D01*
X166Y1271D01*
X173Y1278D01*
X179Y1287D01*
X181Y1297D01*
Y1297D01*
D02*
G37*
G36*
X137D02*
X102D01*
Y1297D01*
X105Y1287D01*
X110Y1278D01*
X117Y1271D01*
X126Y1266D01*
X136Y1263D01*
X137D01*
Y1297D01*
D02*
G37*
G36*
X525Y1246D02*
X518D01*
X512Y1243D01*
X507Y1238D01*
X504Y1232D01*
Y1225D01*
X507Y1218D01*
X512Y1213D01*
X518Y1211D01*
X525D01*
X532Y1213D01*
X537Y1218D01*
X539Y1225D01*
Y1232D01*
X537Y1238D01*
X532Y1243D01*
X525Y1246D01*
D02*
G37*
G36*
X146Y1238D02*
X137D01*
X128Y1235D01*
X120Y1231D01*
X113Y1224D01*
X109Y1216D01*
X106Y1207D01*
Y1202D01*
X101Y1200D01*
X101Y1200D01*
X94Y1203D01*
X87D01*
X80Y1200D01*
X75Y1195D01*
X73Y1189D01*
Y1181D01*
X75Y1175D01*
X80Y1170D01*
X87Y1167D01*
X94D01*
X101Y1170D01*
X106Y1175D01*
X108Y1180D01*
X112Y1181D01*
X113Y1181D01*
X113Y1181D01*
X120Y1174D01*
X128Y1169D01*
X137Y1167D01*
X146D01*
X155Y1169D01*
X164Y1174D01*
X170Y1181D01*
X175Y1189D01*
X177Y1198D01*
Y1207D01*
X175Y1216D01*
X170Y1224D01*
X164Y1231D01*
X155Y1235D01*
X146Y1238D01*
D02*
G37*
G36*
X586Y1230D02*
X579D01*
X573Y1228D01*
X568Y1223D01*
X565Y1216D01*
Y1209D01*
X568Y1203D01*
X573Y1197D01*
X579Y1195D01*
X586D01*
X593Y1197D01*
X598Y1203D01*
X600Y1209D01*
Y1216D01*
X598Y1223D01*
X593Y1228D01*
X586Y1230D01*
D02*
G37*
G36*
X846Y1238D02*
X837D01*
X828Y1235D01*
X820Y1231D01*
X813Y1224D01*
X809Y1216D01*
X806Y1207D01*
Y1198D01*
X809Y1189D01*
X813Y1181D01*
X820Y1174D01*
X828Y1169D01*
X837Y1167D01*
X846D01*
X855Y1169D01*
X864Y1174D01*
X870Y1181D01*
X875Y1189D01*
X877Y1198D01*
Y1207D01*
X875Y1216D01*
X870Y1224D01*
X864Y1231D01*
X855Y1235D01*
X846Y1238D01*
D02*
G37*
G36*
Y1138D02*
X837D01*
X828Y1135D01*
X820Y1131D01*
X813Y1124D01*
X809Y1116D01*
X806Y1107D01*
Y1098D01*
X809Y1089D01*
X813Y1081D01*
X820Y1074D01*
X828Y1069D01*
X837Y1067D01*
X846D01*
X855Y1069D01*
X864Y1074D01*
X870Y1081D01*
X875Y1089D01*
X877Y1098D01*
Y1107D01*
X875Y1116D01*
X870Y1124D01*
X864Y1131D01*
X855Y1135D01*
X846Y1138D01*
D02*
G37*
G36*
X146D02*
X137D01*
X128Y1135D01*
X120Y1131D01*
X113Y1124D01*
X109Y1116D01*
X106Y1107D01*
Y1098D01*
X109Y1089D01*
X113Y1081D01*
X120Y1074D01*
X128Y1069D01*
X137Y1067D01*
X146D01*
X155Y1069D01*
X164Y1074D01*
X170Y1081D01*
X175Y1089D01*
X177Y1098D01*
Y1107D01*
X175Y1116D01*
X170Y1124D01*
X164Y1131D01*
X155Y1135D01*
X146Y1138D01*
D02*
G37*
G36*
X496Y1093D02*
X489D01*
X482Y1090D01*
X477Y1085D01*
X474Y1078D01*
Y1071D01*
X477Y1065D01*
X482Y1060D01*
X489Y1057D01*
X496D01*
X502Y1060D01*
X507Y1065D01*
X510Y1071D01*
Y1078D01*
X507Y1085D01*
X502Y1090D01*
X496Y1093D01*
D02*
G37*
G36*
X700Y1061D02*
X693D01*
X687Y1058D01*
X682Y1053D01*
X679Y1047D01*
Y1040D01*
X682Y1033D01*
X687Y1028D01*
X693Y1025D01*
X700D01*
X707Y1028D01*
X712Y1033D01*
X715Y1040D01*
Y1047D01*
X712Y1053D01*
X707Y1058D01*
X700Y1061D01*
D02*
G37*
G36*
X846Y1038D02*
X837D01*
X828Y1035D01*
X820Y1031D01*
X813Y1024D01*
X809Y1016D01*
X806Y1007D01*
Y998D01*
X809Y989D01*
X813Y981D01*
X820Y974D01*
X828Y969D01*
X837Y967D01*
X846D01*
X855Y969D01*
X864Y974D01*
X870Y981D01*
X875Y989D01*
X877Y998D01*
Y1007D01*
X875Y1016D01*
X870Y1024D01*
X864Y1031D01*
X855Y1035D01*
X846Y1038D01*
D02*
G37*
G36*
X146D02*
X137D01*
X128Y1035D01*
X120Y1031D01*
X113Y1024D01*
X109Y1016D01*
X106Y1007D01*
Y998D01*
X109Y989D01*
X113Y981D01*
X120Y974D01*
X128Y969D01*
X137Y967D01*
X146D01*
X155Y969D01*
X164Y974D01*
X170Y981D01*
X175Y989D01*
X177Y998D01*
Y1007D01*
X175Y1016D01*
X170Y1024D01*
X164Y1031D01*
X155Y1035D01*
X146Y1038D01*
D02*
G37*
G36*
X700Y1002D02*
X693D01*
X687Y999D01*
X682Y994D01*
X679Y988D01*
Y981D01*
X682Y974D01*
X687Y969D01*
X693Y966D01*
X700D01*
X707Y969D01*
X712Y974D01*
X715Y981D01*
Y988D01*
X712Y994D01*
X707Y999D01*
X700Y1002D01*
D02*
G37*
G36*
X846Y938D02*
X837D01*
X828Y935D01*
X820Y931D01*
X813Y924D01*
X809Y916D01*
X806Y907D01*
Y898D01*
X809Y889D01*
X813Y881D01*
X820Y874D01*
X828Y869D01*
X837Y867D01*
X846D01*
X855Y869D01*
X864Y874D01*
X870Y881D01*
X875Y889D01*
X877Y898D01*
Y907D01*
X875Y916D01*
X870Y924D01*
X864Y931D01*
X855Y935D01*
X846Y938D01*
D02*
G37*
G36*
X146D02*
X137D01*
X128Y935D01*
X120Y931D01*
X113Y924D01*
X109Y916D01*
X106Y907D01*
Y898D01*
X109Y889D01*
X113Y881D01*
X120Y874D01*
X128Y869D01*
X137Y867D01*
X146D01*
X155Y869D01*
X164Y874D01*
X170Y881D01*
X175Y889D01*
X177Y898D01*
Y907D01*
X175Y916D01*
X170Y924D01*
X164Y931D01*
X155Y935D01*
X146Y938D01*
D02*
G37*
G36*
X929Y876D02*
X922D01*
X915Y873D01*
X910Y868D01*
X907Y862D01*
Y855D01*
X910Y848D01*
X915Y843D01*
X922Y840D01*
X929D01*
X935Y843D01*
X940Y848D01*
X943Y855D01*
Y862D01*
X940Y868D01*
X935Y873D01*
X929Y876D01*
D02*
G37*
G36*
X147Y842D02*
X147D01*
Y807D01*
X181D01*
Y808D01*
X179Y818D01*
X173Y827D01*
X166Y834D01*
X157Y839D01*
X147Y842D01*
D02*
G37*
G36*
X137D02*
X136D01*
X126Y839D01*
X117Y834D01*
X110Y827D01*
X105Y818D01*
X102Y808D01*
Y807D01*
X137D01*
Y842D01*
D02*
G37*
G36*
X847D02*
X847D01*
Y807D01*
X881D01*
Y808D01*
X879Y818D01*
X873Y827D01*
X866Y834D01*
X857Y839D01*
X847Y842D01*
D02*
G37*
G36*
X837D02*
X836D01*
X826Y839D01*
X817Y834D01*
X810Y827D01*
X805Y818D01*
X802Y808D01*
Y807D01*
X837D01*
Y842D01*
D02*
G37*
G36*
X881Y797D02*
X847D01*
Y763D01*
X847D01*
X857Y766D01*
X866Y771D01*
X873Y778D01*
X879Y787D01*
X881Y797D01*
Y797D01*
D02*
G37*
G36*
X837D02*
X802D01*
Y797D01*
X805Y787D01*
X810Y778D01*
X817Y771D01*
X826Y766D01*
X836Y763D01*
X837D01*
Y797D01*
D02*
G37*
G36*
X181Y797D02*
X147D01*
Y763D01*
X147D01*
X157Y766D01*
X166Y771D01*
X173Y778D01*
X179Y787D01*
X181Y797D01*
Y797D01*
D02*
G37*
G36*
X137D02*
X102D01*
Y797D01*
X105Y787D01*
X110Y778D01*
X117Y771D01*
X126Y766D01*
X136Y763D01*
X137D01*
Y797D01*
D02*
G37*
G36*
X846Y738D02*
X837D01*
X828Y735D01*
X820Y731D01*
X813Y724D01*
X809Y716D01*
X806Y707D01*
Y698D01*
X809Y689D01*
X813Y681D01*
X820Y674D01*
X828Y669D01*
X837Y667D01*
X846D01*
X855Y669D01*
X864Y674D01*
X870Y681D01*
X875Y689D01*
X877Y698D01*
Y707D01*
X875Y716D01*
X870Y724D01*
X864Y731D01*
X855Y735D01*
X846Y738D01*
D02*
G37*
G36*
X146D02*
X137D01*
X128Y735D01*
X120Y731D01*
X113Y724D01*
X109Y716D01*
X106Y707D01*
Y698D01*
X109Y689D01*
X113Y681D01*
X120Y674D01*
X128Y669D01*
X137Y667D01*
X146D01*
X155Y669D01*
X164Y674D01*
X170Y681D01*
X175Y689D01*
X177Y698D01*
Y707D01*
X175Y716D01*
X170Y724D01*
X164Y731D01*
X155Y735D01*
X146Y738D01*
D02*
G37*
G36*
X819Y667D02*
X811D01*
X805Y665D01*
X800Y660D01*
X797Y653D01*
Y646D01*
X800Y640D01*
X805Y635D01*
X811Y632D01*
X814D01*
X816Y627D01*
X813Y624D01*
X809Y616D01*
X806Y607D01*
Y598D01*
X809Y589D01*
X813Y581D01*
X820Y574D01*
X828Y569D01*
X837Y567D01*
X846D01*
X855Y569D01*
X864Y574D01*
X870Y581D01*
X875Y589D01*
X877Y598D01*
Y607D01*
X875Y616D01*
X870Y624D01*
X864Y631D01*
X855Y635D01*
X846Y638D01*
X837D01*
X834Y637D01*
X831Y641D01*
X833Y646D01*
Y653D01*
X830Y660D01*
X825Y665D01*
X819Y667D01*
D02*
G37*
G36*
X146Y638D02*
X137D01*
X128Y635D01*
X120Y631D01*
X113Y624D01*
X109Y616D01*
X106Y607D01*
Y598D01*
X109Y589D01*
X113Y581D01*
X120Y574D01*
X128Y569D01*
X137Y567D01*
X146D01*
X155Y569D01*
X164Y574D01*
X170Y581D01*
X175Y589D01*
X177Y598D01*
Y607D01*
X175Y616D01*
X170Y624D01*
X164Y631D01*
X155Y635D01*
X146Y638D01*
D02*
G37*
G36*
X878Y571D02*
X870D01*
X864Y568D01*
X859Y563D01*
X856Y557D01*
Y550D01*
X859Y543D01*
X864Y538D01*
X870Y535D01*
X878D01*
X884Y538D01*
X889Y543D01*
X892Y550D01*
Y557D01*
X889Y563D01*
X884Y568D01*
X878Y571D01*
D02*
G37*
G36*
X146Y538D02*
X137D01*
X128Y535D01*
X120Y531D01*
X113Y524D01*
X109Y516D01*
X106Y507D01*
Y498D01*
X109Y489D01*
X113Y481D01*
X120Y474D01*
X128Y469D01*
X137Y467D01*
X146D01*
X155Y469D01*
X164Y474D01*
X170Y481D01*
X175Y489D01*
X177Y498D01*
Y507D01*
X175Y516D01*
X170Y524D01*
X164Y531D01*
X155Y535D01*
X146Y538D01*
D02*
G37*
G36*
Y438D02*
X137D01*
X128Y435D01*
X120Y431D01*
X113Y424D01*
X109Y416D01*
X106Y407D01*
Y398D01*
X109Y389D01*
X113Y381D01*
X120Y374D01*
X128Y369D01*
X137Y367D01*
X146D01*
X155Y369D01*
X164Y374D01*
X170Y381D01*
X175Y389D01*
X177Y398D01*
Y407D01*
X175Y416D01*
X170Y424D01*
X164Y431D01*
X155Y435D01*
X146Y438D01*
D02*
G37*
G36*
X578Y392D02*
X571D01*
X565Y389D01*
X560Y384D01*
X557Y378D01*
Y370D01*
X560Y364D01*
X565Y359D01*
X571Y356D01*
X578D01*
X585Y359D01*
X590Y364D01*
X593Y370D01*
Y378D01*
X590Y384D01*
X585Y389D01*
X578Y392D01*
D02*
G37*
G36*
X488D02*
X481D01*
X474Y389D01*
X469Y384D01*
X466Y378D01*
Y370D01*
X469Y364D01*
X474Y359D01*
X481Y356D01*
X488D01*
X494Y359D01*
X499Y364D01*
X502Y370D01*
Y378D01*
X499Y384D01*
X494Y389D01*
X488Y392D01*
D02*
G37*
G36*
X437D02*
X430D01*
X423Y389D01*
X418Y384D01*
X415Y378D01*
Y370D01*
X418Y364D01*
X423Y359D01*
X430Y356D01*
X437D01*
X443Y359D01*
X448Y364D01*
X451Y370D01*
Y378D01*
X448Y384D01*
X443Y389D01*
X437Y392D01*
D02*
G37*
G36*
X147Y342D02*
X147D01*
Y307D01*
X181D01*
Y308D01*
X179Y318D01*
X173Y327D01*
X166Y334D01*
X157Y339D01*
X147Y342D01*
D02*
G37*
G36*
X137D02*
X136D01*
X126Y339D01*
X117Y334D01*
X110Y327D01*
X105Y318D01*
X102Y308D01*
Y307D01*
X137D01*
Y342D01*
D02*
G37*
G36*
X771Y301D02*
X764D01*
X758Y299D01*
X753Y294D01*
X750Y287D01*
Y280D01*
X753Y273D01*
X758Y268D01*
X764Y266D01*
X771D01*
X778Y268D01*
X783Y273D01*
X786Y280D01*
Y287D01*
X783Y294D01*
X778Y299D01*
X771Y301D01*
D02*
G37*
G36*
X881Y297D02*
X847D01*
Y263D01*
X847D01*
X857Y266D01*
X866Y271D01*
X873Y278D01*
X879Y287D01*
X881Y297D01*
Y297D01*
D02*
G37*
G36*
X837D02*
X802D01*
Y297D01*
X805Y287D01*
X810Y278D01*
X817Y271D01*
X826Y266D01*
X836Y263D01*
X837D01*
Y297D01*
D02*
G37*
G36*
X181Y297D02*
X147D01*
Y263D01*
X147D01*
X157Y266D01*
X166Y271D01*
X173Y278D01*
X179Y287D01*
X181Y297D01*
Y297D01*
D02*
G37*
G36*
X137D02*
X102D01*
Y297D01*
X105Y287D01*
X110Y278D01*
X117Y271D01*
X126Y266D01*
X136Y263D01*
X137D01*
Y297D01*
D02*
G37*
G36*
X846Y238D02*
X837D01*
X828Y235D01*
X820Y231D01*
X813Y224D01*
X809Y216D01*
X806Y207D01*
Y198D01*
X809Y189D01*
X813Y181D01*
X820Y174D01*
X828Y169D01*
X837Y167D01*
X846D01*
X855Y169D01*
X864Y174D01*
X870Y181D01*
X875Y189D01*
X877Y198D01*
Y207D01*
X875Y216D01*
X870Y224D01*
X864Y231D01*
X855Y235D01*
X846Y238D01*
D02*
G37*
G36*
X146D02*
X137D01*
X128Y235D01*
X120Y231D01*
X113Y224D01*
X109Y216D01*
X106Y207D01*
Y198D01*
X109Y189D01*
X113Y181D01*
X120Y174D01*
X128Y169D01*
X137Y167D01*
X146D01*
X155Y169D01*
X164Y174D01*
X170Y181D01*
X175Y189D01*
X177Y198D01*
Y207D01*
X175Y216D01*
X170Y224D01*
X164Y231D01*
X155Y235D01*
X146Y238D01*
D02*
G37*
G36*
X722Y179D02*
X710D01*
X698Y176D01*
X687Y169D01*
X678Y161D01*
X672Y150D01*
X669Y138D01*
Y125D01*
X672Y113D01*
X678Y102D01*
X687Y94D01*
X698Y87D01*
X710Y84D01*
X722D01*
X734Y87D01*
X745Y94D01*
X754Y102D01*
X760Y113D01*
X763Y125D01*
Y138D01*
X760Y150D01*
X754Y161D01*
X745Y169D01*
X734Y176D01*
X722Y179D01*
D02*
G37*
G36*
X274D02*
X261D01*
X249Y176D01*
X238Y169D01*
X229Y161D01*
X223Y150D01*
X220Y138D01*
Y125D01*
X223Y113D01*
X229Y102D01*
X238Y94D01*
X249Y87D01*
X261Y84D01*
X274D01*
X286Y87D01*
X296Y94D01*
X305Y102D01*
X311Y113D01*
X315Y125D01*
Y138D01*
X311Y150D01*
X305Y161D01*
X296Y169D01*
X286Y176D01*
X274Y179D01*
D02*
G37*
G36*
X877Y138D02*
X806D01*
Y67D01*
X877D01*
Y138D01*
D02*
G37*
G36*
X146D02*
X137D01*
X128Y135D01*
X120Y131D01*
X113Y124D01*
X109Y116D01*
X106Y107D01*
Y98D01*
X109Y89D01*
X113Y81D01*
X120Y74D01*
X128Y69D01*
X137Y67D01*
X146D01*
X155Y69D01*
X164Y74D01*
X170Y81D01*
X175Y89D01*
X177Y98D01*
Y107D01*
X175Y116D01*
X170Y124D01*
X164Y131D01*
X155Y135D01*
X146Y138D01*
D02*
G37*
%LPD*%
D24*
X531Y1789D02*
D03*
D66*
Y1450D02*
Y1453D01*
Y1450D02*
X541Y1440D01*
Y1356D02*
Y1440D01*
X697Y571D02*
X703Y564D01*
X693Y571D02*
X697D01*
X541Y1356D02*
X571Y1327D01*
X878Y343D02*
X913D01*
X945Y311D01*
X870Y350D02*
X878Y343D01*
X815Y350D02*
X870D01*
X780Y386D02*
X815Y350D01*
X780Y386D02*
Y429D01*
X697Y512D02*
X780Y429D01*
X703Y564D02*
X704D01*
X815Y453D01*
X874D01*
X894Y433D01*
Y374D02*
Y433D01*
X571Y1327D02*
X571D01*
D67*
X213Y1461D02*
Y1484D01*
Y1437D02*
Y1461D01*
X531Y1673D02*
Y1789D01*
X378Y1520D02*
X531Y1673D01*
X248Y1520D02*
X378D01*
X213Y1484D02*
X248Y1520D01*
X678Y1548D02*
X713Y1583D01*
X676Y1548D02*
X678D01*
X713Y1583D02*
X776D01*
D68*
X626Y1567D02*
X709Y1650D01*
Y1761D01*
X626Y1484D02*
Y1567D01*
X650Y807D02*
X697D01*
X650D02*
Y1189D01*
X685Y256D02*
Y394D01*
X650Y1245D02*
Y1461D01*
Y429D02*
X685Y394D01*
X650Y1189D02*
Y1244D01*
X626Y1484D02*
X650Y1461D01*
Y429D02*
Y807D01*
D69*
X786Y1672D02*
Y1947D01*
X783Y1669D02*
X786Y1672D01*
Y1947D02*
X842Y2002D01*
D70*
X453Y1789D02*
D03*
D71*
X709Y1761D02*
D03*
D73*
X142Y1802D02*
D03*
Y1302D02*
D03*
Y802D02*
D03*
Y302D02*
D03*
X842Y1802D02*
D03*
Y2002D02*
D03*
Y1302D02*
D03*
Y802D02*
D03*
Y302D02*
D03*
D76*
X807Y51D02*
D03*
X732Y201D02*
D03*
X582Y2001D02*
D03*
X507Y951D02*
D03*
X582Y801D02*
D03*
X507Y651D02*
D03*
X582Y501D02*
D03*
X357Y1851D02*
D03*
Y951D02*
D03*
X432Y801D02*
D03*
X357Y651D02*
D03*
X432Y501D02*
D03*
X207Y1251D02*
D03*
X282Y201D02*
D03*
X207Y51D02*
D03*
X57Y1851D02*
D03*
Y351D02*
D03*
Y51D02*
D03*
X237Y1646D02*
D03*
X283Y1559D02*
D03*
X213Y1717D02*
D03*
Y1461D02*
D03*
Y1437D02*
D03*
X508Y1421D02*
D03*
X531Y1453D02*
D03*
X500Y311D02*
D03*
X429Y331D02*
D03*
X75Y776D02*
D03*
X47Y740D02*
D03*
Y559D02*
D03*
Y862D02*
D03*
X500Y1941D02*
D03*
X213Y1795D02*
D03*
X315D02*
D03*
X319Y1760D02*
D03*
X354Y1902D02*
D03*
X582Y693D02*
D03*
Y886D02*
D03*
Y1051D02*
D03*
X626Y1622D02*
D03*
X676Y1548D02*
D03*
X59Y2043D02*
D03*
X57Y1996D02*
D03*
Y1917D02*
D03*
X740Y59D02*
D03*
X925Y106D02*
D03*
X57Y155D02*
D03*
Y256D02*
D03*
Y425D02*
D03*
X55Y512D02*
D03*
X457Y1276D02*
D03*
X559Y1571D02*
D03*
X654Y2028D02*
D03*
X437Y2008D02*
D03*
X445Y1652D02*
D03*
X354Y1441D02*
D03*
X685Y1493D02*
D03*
X748Y1429D02*
D03*
X783Y1669D02*
D03*
X776Y1583D02*
D03*
X929Y948D02*
D03*
X63Y1122D02*
D03*
X71Y1031D02*
D03*
X504Y1350D02*
D03*
X91Y1335D02*
D03*
X650Y1244D02*
D03*
X260Y2157D02*
D03*
X311Y63D02*
D03*
X319Y205D02*
D03*
X669D02*
D03*
X673Y63D02*
D03*
X850Y2138D02*
D03*
X685D02*
D03*
X142Y2142D02*
D03*
X925Y1260D02*
D03*
X941Y2094D02*
D03*
X760Y2138D02*
D03*
X213D02*
D03*
X51Y1610D02*
D03*
X63Y1161D02*
D03*
X457Y236D02*
D03*
X343Y264D02*
D03*
X409Y260D02*
D03*
X286Y342D02*
D03*
X298Y310D02*
D03*
X319Y284D02*
D03*
X449Y261D02*
D03*
X391Y330D02*
D03*
X359Y339D02*
D03*
X351Y372D02*
D03*
X79Y894D02*
D03*
X709Y256D02*
D03*
X685Y256D02*
D03*
X663Y256D02*
D03*
X693Y571D02*
D03*
X635Y306D02*
D03*
X370Y236D02*
D03*
X319Y31D02*
D03*
X673D02*
D03*
X252Y370D02*
D03*
X201D02*
D03*
X287Y516D02*
D03*
Y575D02*
D03*
X402Y1260D02*
D03*
X283D02*
D03*
X343D02*
D03*
X130Y1154D02*
D03*
X772Y189D02*
D03*
X756Y323D02*
D03*
X752Y350D02*
D03*
X390Y374D02*
D03*
X906Y220D02*
D03*
X953Y346D02*
D03*
X949Y433D02*
D03*
Y646D02*
D03*
X929Y752D02*
D03*
X697Y748D02*
D03*
X811Y1150D02*
D03*
X752Y1205D02*
D03*
Y1244D02*
D03*
X724Y1519D02*
D03*
X91Y1780D02*
D03*
X945Y311D02*
D03*
X894Y374D02*
D03*
X697Y512D02*
D03*
Y807D02*
D03*
X650Y1189D02*
D03*
X571Y1327D02*
D03*
M02*
