M48
;Layer_Color=9474304
;FILE_FORMAT=2:3
INCH,LZ
;TYPE=PLATED
T01F00S00C0.012
T02F00S00C0.028
T03F00S00C0.035
;TYPE=NON_PLATED
T04F00S00C0.083
%
T01
X00057Y00051
Y00155
Y00256
X00282Y00201
X00319Y00205
X0037Y00236
X00409Y0026
X00449Y00261
X00457Y00236
X00663Y00256
X00685Y00256
X00709Y00256
X00732Y00201
X00772Y00189
X00669Y00205
X00673Y00063
Y00031
X0074Y00059
X00807Y00051
X00925Y00106
X00906Y0022
X00311Y00063
X00319Y00031
X00207Y00051
X00201Y0037
X00252
X00286Y00342
X00298Y0031
X00319Y00284
X00343Y00264
X00359Y00339
X00351Y00372
X0039Y00374
X00433
X00429Y00331
X00391Y0033
X005Y00311
X00484Y00374
X00575
X0065Y00354
X00635Y00306
X00756Y00323
X00752Y0035
X00768Y00283
X00945Y00311
X00953Y00346
X00894Y00374
X00949Y00433
X00953Y00488
X00874Y00553
X00815Y0065
X00949Y00646
X00929Y00752
X00925Y00858
X00929Y00948
X00697Y00984
Y01043
X00582Y01051
X00492Y01075
X00507Y00951
X00582Y00886
Y00801
Y00693
X00507Y00651
X00357
X00287Y00575
Y00516
X00432Y00501
X00582
X00697Y00512
X00693Y00571
X00697Y00748
Y00807
X00693Y0087
X00432Y00801
X00357Y00951
X00343Y0126
X00402
X00457Y01276
X00522Y01228
X00583Y01213
X0065Y01189
Y01244
X00752
Y01205
X00811Y0115
X00925Y0126
X00748Y01429
X00724Y01519
X00685Y01493
X00676Y01548
X00626Y01622
X00559Y01571
X00531Y01453
X00508Y01421
X00504Y0135
X00571Y01327
X00354Y01441
X00213Y01437
Y01461
X00283Y01559
X0035Y01598
X0039
X00445Y01652
X00237Y01646
X00213Y01717
Y01795
X00315
X00319Y0176
X00091Y0178
X00051Y0161
X00091Y01335
Y01185
X00063Y01161
Y01122
X0013Y01154
X00207Y01251
X00283Y0126
X00071Y01031
X00079Y00894
X00047Y00862
X00075Y00776
X00047Y0074
Y00559
X00055Y00512
X00057Y00425
Y00351
X00776Y01583
X00783Y01669
X0089Y01748
X00879Y02053
X00941Y02094
X0085Y02138
X0076
X00685
X00654Y02028
X00582Y02001
X005Y01941
X00437Y02008
X00354Y01902
X00357Y01851
X00307Y01827
X0026
X00057Y01851
Y01917
Y01996
X00059Y02043
X00142Y02142
X00213Y02138
X0026Y02157
X00307Y02118
T02
X00453Y01789
X00531
T03
X00142Y00102
Y00202
X00842
Y00102
Y00302
Y00402
Y00502
Y00602
Y00702
Y00802
Y00902
Y01002
Y01102
Y01202
Y01302
Y01402
Y01502
Y01602
Y01702
Y01802
X00709Y01761
X00142Y01802
Y01702
Y01602
Y01502
Y01402
Y01302
Y01202
Y01102
Y01002
Y00902
Y00802
Y00702
Y00602
Y00502
Y00402
Y00302
Y01902
Y02002
X00842
Y01902
X00709Y01861
T04
X00267Y00131
X00716
Y01973
X00267
M30
